<svg id="Layer_1" data-name="Layer 1" xmlns="http://www.w3.org/2000/svg" viewBox="0 0 54.71 50.05"><title>swan_logo</title><path d="M984.18,544.27a.62.62,0,0,0,.63.58.61.61,0,0,0,.57-.58.6.6,0,0,0-.6-.6.6.6,0,0,0-.6.6m-1.32,4.23a.61.61,0,0,0,.61.61.62.62,0,1,0,0-1.23.61.61,0,0,0-.61.62m.69-2.11h0m1.78-4.85a.59.59,0,0,0-.59.59.6.6,0,0,0,.6.6.6.6,0,1,0,0-1.19m2.75-.06a.5.5,0,0,0-.5.51.5.5,0,0,0,.5.5.5.5,0,0,0,.51-.5.51.51,0,0,0-.51-.51h0m-4.21,9a.59.59,0,0,0,.59-.6.58.58,0,0,0-.59-.59.59.59,0,0,0-.6.59.6.6,0,0,0,.6.6m5.3-9.76a.48.48,0,0,0-.47.47.47.47,0,1,0,.47-.47h0m-1,2.72a.48.48,0,1,0,.48-.48.47.47,0,0,0-.48.48h0m-1.74-2.69a.57.57,0,0,0-.57.56.58.58,0,0,0,.57.57.57.57,0,0,0,.56-.57.56.56,0,0,0-.56-.56m1.07-.76a.54.54,0,0,0-.53.54.53.53,0,0,0,1.06,0h0a.53.53,0,0,0-.53-.53m-4.61,20.4a.54.54,0,1,0,0-1.08.54.54,0,0,0-.53.54.54.54,0,0,0,.53.54m-.79,5.72a.48.48,0,0,0-.48-.48.47.47,0,0,0-.48.47h0a.47.47,0,0,0,.48.47.48.48,0,0,0,.48-.47m-.38-3.41a.51.51,0,0,0-.48.56.52.52,0,0,0,.48.49.53.53,0,0,0,.53-.53.52.52,0,0,0-.53-.52m0,1.46a.52.52,0,0,0-.53.47.5.5,0,0,0,.47.54h.06a.5.5,0,0,0,.48-.52.52.52,0,0,0-.48-.49m1.09-5.23a.56.56,0,0,0,.58-.54.55.55,0,0,0-.53-.58h-.05a.56.56,0,0,0,0,1.12m-1.07,2.29a.55.55,0,0,0-.55.55h0a.55.55,0,1,0,.55-.55m.75-9.26a.61.61,0,1,0,.6-.6.6.6,0,0,0-.6.6m-1.87,4.06a.63.63,0,0,0,.62.63.63.63,0,1,0-.62-.63m1-2a.62.62,0,0,0,1.23,0h0a.62.62,0,0,0-.61-.62.61.61,0,0,0-.62.61m-.16,4a.61.61,0,0,0,.61-.61h0a.6.6,0,0,0-.6-.6h0a.61.61,0,0,0,0,1.21m.1,9.93h0m10.31-24.45a.38.38,0,1,0-.38.38.38.38,0,0,0,.38-.38m-4,4.35a.5.5,0,0,0-.53-.47.48.48,0,0,0-.47.47.49.49,0,0,0,.5.49.5.5,0,0,0,.5-.49m-4.88,14a.52.52,0,0,0,.52-.52.52.52,0,1,0-.52.52m4.79-12a.48.48,0,1,0,0-.95.48.48,0,1,0,0,.95m-2,2.83a.52.52,0,0,0,0-1h0a.52.52,0,0,0,0,1m1.35-2.67a.52.52,0,0,0-.51-.51.51.51,0,0,0-.51.51.51.51,0,0,0,1,0m3.62-5.8a.42.42,0,1,0-.42.42.43.43,0,0,0,.42-.42m-5.89,10.59a.54.54,0,0,0,.5-.57.52.52,0,1,0-1,0h0a.54.54,0,0,0,.53.54m4.14-7.64a.47.47,0,0,0-.45-.48.46.46,0,0,0-.48.44v0a.47.47,0,0,0,.93,0m1.84-1a.41.41,0,0,0,.36-.42.4.4,0,0,0-.36-.37.4.4,0,0,0,0,.79M989.61,545a.45.45,0,0,0-.45-.45.45.45,0,1,0,0,.9.45.45,0,0,0,.45-.45m0,2a.43.43,0,0,0,.42-.43h0a.42.42,0,0,0-.42-.42h0a.42.42,0,0,0-.43.42h0a.43.43,0,0,0,.42.44h0m-.34-4.27a.43.43,0,0,0,.44.44.44.44,0,0,0,.44-.44.44.44,0,0,0-.42-.46.44.44,0,0,0-.46.42v0m2-3.46a.41.41,0,0,0-.42.37.4.4,0,0,0,.38.42h0a.4.4,0,0,0,.4-.39h0a.4.4,0,0,0-.4-.4h0m.6,6.28a.36.36,0,0,0,.36-.35h0a.36.36,0,0,0-.38-.33.34.34,0,0,0,0,.68m0-4.69a.36.36,0,0,0-.36.36h0a.37.37,0,1,0,.73,0v0a.36.36,0,0,0-.36-.37h0m-1.69-.84a.43.43,0,0,0,0,.86h0a.43.43,0,0,0,0-.86m.19,2a.41.41,0,1,0,.4-.4.4.4,0,0,0-.4.4m-5.35,10.86a.55.55,0,0,0-.55-.55.55.55,0,0,0-.55.55.54.54,0,0,0,.55.55.55.55,0,0,0,.55-.55m-1.49,2.64a.57.57,0,0,0,0-1.13h0a.57.57,0,1,0,0,1.13m0-4.11a.58.58,0,1,0,.58-.58.58.58,0,0,0-.58.58h0m-1.84,4.12a.6.6,0,0,0,.6.59.59.59,0,0,0,.59-.59h0a.59.59,0,0,0-.59-.6h0a.6.6,0,0,0-.6.59m1-2a.58.58,0,0,0,.58.58.57.57,0,0,0,.56-.61.57.57,0,1,0-1.14,0m7.73-3.25a.39.39,0,1,0,0-.77.38.38,0,0,0-.38.38.39.39,0,0,0,.38.39m4.72-11.56a.25.25,0,0,0-.26.25h0a.26.26,0,1,0,.26-.26m.13,4.2a.25.25,0,0,0-.25.24h0a.25.25,0,1,0,.49,0,.24.24,0,0,0-.24-.24m-.59-1.75a.27.27,0,1,0,.27.27.27.27,0,0,0-.27-.27m-.22-4.13a.3.3,0,0,0-.29.29.28.28,0,0,0,.29.28.28.28,0,0,0,.28-.28h0a.29.29,0,0,0-.28-.29h0m.69,10.59a.23.23,0,0,0,.24-.23.24.24,0,0,0-.48,0,.23.23,0,0,0,.24.23m-.23-2a.25.25,0,0,0-.26-.26.26.26,0,1,0,0,.51.25.25,0,0,0,.25-.25m-2.13,3.35a.31.31,0,0,0,.31-.31.3.3,0,0,0-.31-.31.31.31,0,0,0-.31.31.31.31,0,0,0,.31.31m1-2.68a.3.3,0,0,0-.3-.3.3.3,0,0,0,0,.59.3.3,0,0,0,.3-.29m.58,3.78a.26.26,0,0,0,0-.51.25.25,0,0,0-.25.25h0a.25.25,0,0,0,.25.25m-.42-1.76a.27.27,0,0,0,.28-.28.28.28,0,0,0-.28-.27h0a.27.27,0,0,0-.27.27.28.28,0,0,0,.27.28h0m-.21-8.55a.3.3,0,1,0,.59,0,.29.29,0,0,0-.29-.29h0a.3.3,0,0,0-.3.29m-.57,10.93a.29.29,0,0,0,.29-.29.28.28,0,0,0-.29-.28.28.28,0,0,0-.29.28h0a.29.29,0,0,0,.29.29m-3-12.46a.43.43,0,1,0,.85,0,.43.43,0,0,0-.85,0M983,563.86a.49.49,0,0,0-.5.45.48.48,0,0,0,.45.5H983a.47.47,0,0,0,.45-.49.49.49,0,0,0-.45-.46m6.2-24.91a.47.47,0,1,0,.93,0h0a.47.47,0,0,0-.93,0m.84-2.73a.45.45,0,0,0-.45.45.46.46,0,0,0,.45.46h0a.47.47,0,0,0,.46-.46.46.46,0,0,0-.46-.45m1.74.71a.4.4,0,0,0-.39.39.39.39,0,0,0,.39.39.38.38,0,0,0,.38-.39.39.39,0,0,0-.38-.39m.31,1.93a.36.36,0,1,0,.36-.36.36.36,0,0,0-.36.36m1.77-3.53a.32.32,0,1,0,.31.32h0a.3.3,0,0,0-.3-.32h0m-1.11,5.12a.33.33,0,0,0,.33.33.33.33,0,0,0,.36-.3.35.35,0,0,0-.31-.36h-.05a.33.33,0,0,0-.33.33h0m.44-2.4a.32.32,0,1,0,.32-.32.32.32,0,0,0-.32.32m-.37-1.91a.35.35,0,0,0-.35.35.36.36,0,0,0,.35.35.35.35,0,0,0,.35-.35.34.34,0,0,0-.34-.35h0m-1.74-.73a.42.42,0,1,0,.42.42.42.42,0,0,0-.42-.42m-3.81,18.25a.47.47,0,0,0,.45-.49.48.48,0,0,0-.45-.45.47.47,0,0,0,0,.94h0m-3,7.76a.49.49,0,0,0,.48-.49h0a.48.48,0,0,0-.49-.48.47.47,0,0,0-.48.48.48.48,0,0,0,.48.49h0m2.7-9.31a.48.48,0,0,0,.49-.49.49.49,0,0,0-1,0,.48.48,0,0,0,.49.49m5.83-5.25a.33.33,0,0,0-.33-.33.33.33,0,0,0-.33.33h0a.33.33,0,1,0,.66,0m-8.62,13a.5.5,0,0,0,.51-.5.51.51,0,0,0-.51-.51.52.52,0,0,0-.47.55.5.5,0,0,0,.47.46m1.43-4.06a.52.52,0,1,0-.51.52.51.51,0,0,0,.51-.52h0M983,562.36a.49.49,0,0,0-.5.49.5.5,0,1,0,1,0h0a.49.49,0,0,0-.49-.49m-.08,3a.45.45,0,0,0-.45.45.45.45,0,0,0,.9,0,.45.45,0,0,0-.45-.45m1.1-7a.53.53,0,0,0,0-1,.53.53,0,1,0,0,1m.37-2a.55.55,0,0,0-1.09,0,.55.55,0,1,0,1.09,0h0m2.15-2.63a.5.5,0,0,0-.5-.5h0a.5.5,0,0,0,0,1,.49.49,0,0,0,.5-.49h0m4.33-1.92a.37.37,0,0,0,.35-.38.37.37,0,0,0-.35-.35.36.36,0,0,0-.34.38.37.37,0,0,0,.34.35m.77-4.33a.37.37,0,0,0-.37-.37.38.38,0,0,0-.35.39.37.37,0,0,0,.35.35.36.36,0,0,0,.37-.37m-3.51,4a.45.45,0,0,0,.46-.45h0a.45.45,0,0,0-.46-.45h0a.45.45,0,1,0,0,.9m4-.25a.32.32,0,0,0,.32-.32.32.32,0,0,0-.32-.33.33.33,0,1,0,0,.65m-.38-1.69a.34.34,0,0,0,.32-.36.35.35,0,0,0-.32-.33.35.35,0,0,0-.35.35.35.35,0,0,0,.35.34m-6.66.28a.57.57,0,0,0,0-1.13.57.57,0,0,0,0,1.13m4.34-1a.45.45,0,1,0-.45.44.45.45,0,0,0,.45-.44h0m-.06,2a.42.42,0,1,0-.42-.42h0a.42.42,0,0,0,.42.42m.34,1.62a.41.41,0,0,0,.41-.4h0a.4.4,0,1,0-.8,0,.39.39,0,0,0,.39.4m.85-4.29h0M986.65,558a.43.43,0,0,0-.47.42.44.44,0,0,0,.42.46h0a.44.44,0,0,0,0-.88m-11.89,14.34a.5.5,0,1,0-.49.49.49.49,0,0,0,.49-.49m-.77-1.11a.54.54,0,0,0,.54.54.54.54,0,1,0,0-1.07.54.54,0,0,0-.54.53h0m-1.28,3.25a.37.37,0,0,0-.37-.38h0a.38.38,0,1,0,.37.38h0m2.62-4.39a.57.57,0,0,0-.59-.54.56.56,0,0,0,0,1.11.57.57,0,0,0,.57-.57m-.92,3.32A.43.43,0,0,0,974,573a.43.43,0,1,0,0,.86.43.43,0,0,0,.43-.43h0m.27,2.24a.24.24,0,1,0-.23-.23.23.23,0,0,0,.23.23m-1.57-2.16a.47.47,0,0,0-.93,0,.47.47,0,0,0,.47.47.46.46,0,0,0,.46-.47M984,547.8a.58.58,0,0,0,.62.55.57.57,0,1,0-.62-.55m-10.69,27.93a.29.29,0,1,0-.28-.28.29.29,0,0,0,.28.28m.12-3.22a.53.53,0,1,0-1.05,0v0a.53.53,0,0,0,1.05,0m.55,2a.33.33,0,0,0-.35-.32.34.34,0,0,0-.32.32.33.33,0,0,0,.33.33.34.34,0,0,0,.34-.33m1.29,0a.29.29,0,0,0-.29-.29h0a.29.29,0,0,0-.29.29h0a.29.29,0,0,0,.58,0h0m20.6-29.83a.23.23,0,0,0-.23.23.23.23,0,0,0,.45,0v0a.23.23,0,0,0-.22-.23m-.45,4.51a.22.22,0,0,0,.22.22.22.22,0,0,0,0-.44.22.22,0,0,0-.22.22M988,559.27a.38.38,0,0,0-.39.39h0a.39.39,0,1,0,.77,0h0a.39.39,0,0,0-.38-.39h0m1,1.65a.32.32,0,0,0,.32.33.33.33,0,0,0,.33-.33.32.32,0,0,0-.33-.32.32.32,0,0,0-.32.32m.24-2h0m-13.24,13.36a.47.47,0,0,0-.93,0v0a.47.47,0,0,0,.47.46.47.47,0,0,0,.46-.46m-.35,1.12a.4.4,0,0,0-.39-.4.41.41,0,0,0-.41.39h0a.39.39,0,0,0,.42.37.39.39,0,0,0,.38-.37m21-31a.21.21,0,1,0-.21.2.21.21,0,0,0,.21-.2m-.4-4.49a.22.22,0,0,0-.2.24.2.2,0,0,0,.2.2.22.22,0,0,0,.22-.22.22.22,0,0,0-.22-.22m-.08,8.81a.2.2,0,0,0,.4,0,.2.2,0,0,0-.2-.21h0a.2.2,0,0,0-.2.21m-.34-6.31a.23.23,0,1,0,.23.23.23.23,0,0,0-.23-.23m2,13.93a.1.1,0,0,0,.1.11.11.11,0,0,0,.11-.11.1.1,0,0,0-.11-.1.09.09,0,0,0-.1.1m.65-4.55a.1.1,0,0,0-.11.1.11.11,0,0,0,.22,0,.1.1,0,0,0-.11-.1m.31-8.89a.1.1,0,0,0-.1-.1.1.1,0,0,0-.09.1.09.09,0,0,0,.09.09.1.1,0,0,0,.1-.09h0M993.3,561.4a.19.19,0,0,0-.18.21.19.19,0,0,0,.18.18.19.19,0,0,0,.2-.19h0a.2.2,0,0,0-.2-.2m5.08-24.86a.11.11,0,0,0,.12-.11.12.12,0,0,0-.12-.12.11.11,0,0,0-.11.12.11.11,0,0,0,.11.11m.26-2.62a.1.1,0,0,0,.11-.11.1.1,0,0,0-.11-.1h0a.1.1,0,0,0-.1.1.1.1,0,0,0,.1.11m.27-5.44a.11.11,0,0,0-.12.1.11.11,0,0,0,.12.11.11.11,0,0,0,.1-.11h0a.11.11,0,0,0-.1-.1m0-2.32a.1.1,0,0,0,.1-.1.1.1,0,0,0-.1-.11.11.11,0,0,0-.11.11.1.1,0,0,0,.11.1m-.06,5.15a.12.12,0,0,0,.11-.11.11.11,0,1,0-.11.11m-.1,14.13a.11.11,0,0,0,.11-.1h0a.1.1,0,0,0-.11-.1.09.09,0,0,0-.1.1.1.1,0,0,0,.1.1h0m-.54,2.47a.13.13,0,0,0-.13-.14h0a.13.13,0,0,0-.13.14.13.13,0,0,0,.13.13.13.13,0,0,0,.14-.13m-3.59,13.2a.15.15,0,0,0-.15.15.16.16,0,0,0,.15.16.16.16,0,0,0,.16-.16.16.16,0,0,0-.16-.15h0m0,1.9a.11.11,0,0,0-.11.1h0a.11.11,0,0,0,.11.11.11.11,0,0,0,.1-.11.1.1,0,0,0-.1-.1h0m-1.45,2.2a.11.11,0,0,0,.22,0,.11.11,0,0,0-.22,0m.31-1.8a.17.17,0,0,0-.17-.16.16.16,0,0,0,0,.32.17.17,0,0,0,.17-.16m4.15-28.55a.17.17,0,0,0,.17-.16.17.17,0,1,0-.34,0,.17.17,0,0,0,.17.16m.39,4.29a.13.13,0,0,0,.13-.12.13.13,0,0,0-.13-.13.12.12,0,0,0-.11.14.11.11,0,0,0,.11.11m0-12a.15.15,0,0,0,.15-.15.14.14,0,0,0-.15-.15.15.15,0,0,0-.15.15h0a.15.15,0,0,0,.15.15m.27,16.3a.13.13,0,0,0-.13-.14.14.14,0,0,0-.14.14.13.13,0,0,0,.14.13.13.13,0,0,0,.13-.13M998,529.7a.15.15,0,0,0,.15-.15.15.15,0,1,0-.3,0,.15.15,0,0,0,.15.15m-.13,2.58a.16.16,0,0,0,.16-.15.16.16,0,0,0-.16-.16h0a.16.16,0,0,0-.15.16h0a.15.15,0,0,0,.15.15m-26.17,43.16a.33.33,0,1,0,.33-.33.33.33,0,0,0-.33.33m21.4-31.26h0m1.14-.11a.29.29,0,0,0,.28-.28h0a.3.3,0,0,0-.28-.29.28.28,0,0,0-.28.29h0a.28.28,0,0,0,.28.28m-11,12.86a.58.58,0,0,0-1.15,0,.58.58,0,0,0,1.15,0m-2.37,9.53a.51.51,0,0,0-.49-.53.51.51,0,0,0-.53.49v0a.51.51,0,0,0,1,0m11.72-24a.35.35,0,0,0-.35.34.36.36,0,0,0,.35.35.35.35,0,0,0,.34-.35.34.34,0,0,0-.34-.34h0m-12.11,19.18a.56.56,0,0,0-.57.57.57.57,0,0,0,.57.58.58.58,0,0,0,.58-.58h0a.57.57,0,0,0-.58-.57h0m0,2.86a.53.53,0,0,0-.54.53h0a.53.53,0,0,0,.54.53.52.52,0,0,0,.53-.53h0a.53.53,0,0,0-.53-.53h0m1.14-5a.59.59,0,1,0-.59-.58.59.59,0,0,0,.59.58m-1.15,1.93a.6.6,0,0,0,.62-.58.59.59,0,0,0-.57-.62h-.05a.59.59,0,0,0-.57.62.61.61,0,0,0,.57.58m.05,1.67a.56.56,0,1,0,.55.56.56.56,0,0,0-.55-.56m1.2-3.32a.57.57,0,0,0-.57.57.56.56,0,0,0,.57.57.57.57,0,0,0,.57-.57.58.58,0,0,0-.57-.57m12-18a.3.3,0,0,0-.3.3h0a.29.29,0,0,0,.3.3.3.3,0,0,0,.31-.3.31.31,0,0,0-.3-.31h0m-6.13,1.9a.52.52,0,1,0,.52.51.51.51,0,0,0-.52-.51h0m-.11,2.71a.52.52,0,0,0-.52-.52h0a.52.52,0,0,0-.52.52h0a.51.51,0,0,0,.51.52h0a.51.51,0,0,0,.52-.51h0m-.43-4.18a.53.53,0,0,0-.53.53h0a.54.54,0,1,0,1.07,0h0a.53.53,0,0,0-.53-.53h0m-1.09.73a.57.57,0,0,0,0,1.13h0a.57.57,0,0,0,0-1.13m-1.18,2.72a.58.58,0,0,0,1.15.08v-.08a.58.58,0,1,0-1.15,0m2.24-.73a.55.55,0,1,0-.54.54.54.54,0,0,0,.54-.54h0m.59.76a.48.48,0,0,0,.49.49.49.49,0,1,0-.49-.49m-2.34,1.4a.56.56,0,0,0,.55.56.56.56,0,1,0-.55-.56m1.52,1.48h0m-1.32,1.6a.54.54,0,0,0-.54.54.54.54,0,1,0,1.08,0,.53.53,0,0,0-.53-.54h0m-.15,6.72a.49.49,0,0,0-.52.47.51.51,0,0,0,.48.52h0a.51.51,0,0,0,.47-.52.49.49,0,0,0-.47-.47m-7.35,12.77a.51.51,0,0,0-1,0h0a.51.51,0,0,0,1,0m9.84-8.37a.37.37,0,0,0,.36.37.37.37,0,0,0,.37-.36.37.37,0,1,0-.73,0h0m-3.47.7a.45.45,0,0,0-.47.46.47.47,0,1,0,.46-.46m0,1.54a.45.45,0,0,0,0,.89.45.45,0,0,0,0-.89h0m1.13-5.07a.47.47,0,0,0-.47.47.48.48,0,0,0,.47.48h0a.49.49,0,0,0,.52-.44.48.48,0,0,0-.44-.51h-.08m-.35,2a.45.45,0,1,0,.9,0,.45.45,0,0,0-.9,0m3.84-7.88a.44.44,0,0,0-.43-.44.44.44,0,0,0-.44.44.45.45,0,0,0,.44.44.44.44,0,0,0,.43-.44m-2.54,7.46a.41.41,0,0,0,.41.42.42.42,0,1,0,0-.84h0a.41.41,0,0,0-.41.42h0m1.56-2.47a.41.41,0,0,0-.41.41.41.41,0,1,0,.82,0v0a.41.41,0,0,0-.41-.41M989,537a.49.49,0,0,0-.5.49h0a.49.49,0,0,0,.5.49.49.49,0,0,0,0-1h0m-9.87,27.85a.56.56,0,0,0-.56.56h0a.56.56,0,1,0,.57-.56h0m.06-2.79a.61.61,0,1,0,.61.61.62.62,0,0,0-.6-.61h0m1.5,5.76a.49.49,0,1,0-.48.48.48.48,0,0,0,.48-.48m-.64,1.81a.45.45,0,1,0-.46-.45.46.46,0,0,0,.46.45m-.47-2.86a.54.54,0,1,0-1.08,0,.54.54,0,0,0,.54.54.55.55,0,0,0,.54-.54m-2.86,4.12a.48.48,0,0,0,.95,0,.48.48,0,1,0-.95,0m2.47-7.43a.58.58,0,1,0,.58.58.58.58,0,0,0-.58-.58m-.88,3.63a.57.57,0,0,0-1.14-.05v.05a.57.57,0,0,0,1.14,0m-.18,1.29a.54.54,0,0,0-1.08,0h0a.55.55,0,0,0,.54.55.54.54,0,0,0,.54-.55m.6,1.52a.49.49,0,0,0,.51-.45.47.47,0,0,0-.45-.51h-.06a.47.47,0,0,0-.45.51.48.48,0,0,0,.45.45m.68-1.8a.51.51,0,1,0-.51.52.51.51,0,0,0,.51-.52m-4,3a.51.51,0,0,0,1,0,.51.51,0,0,0-1,0m18.58-17a.25.25,0,0,0,.25-.25.24.24,0,0,0-.25-.24.24.24,0,0,0-.24.24.25.25,0,0,0,.24.25h0m-1,2.31a.27.27,0,0,0,.26-.27.26.26,0,0,0-.26-.26h0a.26.26,0,0,0-.26.26.26.26,0,0,0,.26.27m1-4.36a.27.27,0,0,0-.54,0,.28.28,0,0,0,.27.27.27.27,0,0,0,.27-.27h0m-1.21,2.59a.29.29,0,1,0,0-.57h0a.29.29,0,0,0-.28.28h0a.29.29,0,0,0,.28.28h0m.55,5.33a.22.22,0,0,0,.22-.22h0a.22.22,0,0,0-.44,0,.22.22,0,0,0,.22.23m-.13-1.79a.25.25,0,1,0-.24-.24.25.25,0,0,0,.24.24m-.39-5.59a.31.31,0,0,0-.31-.3.31.31,0,0,0,0,.61.31.31,0,0,0,.31-.31m-.49,11.07h0m-.33,3.41a.1.1,0,0,0-.11.1.11.11,0,0,0,.11.11.11.11,0,0,0,.1-.11.1.1,0,0,0-.1-.1h0m.12-5.4a.23.23,0,1,0,.23.23.23.23,0,0,0-.23-.23h0m3.63-4.41a.17.17,0,0,0,0-.34.17.17,0,0,0,0,.34h0m-3.5,8.16a.17.17,0,0,0-.16-.17h0a.17.17,0,0,0-.17.17.16.16,0,0,0,.17.17.16.16,0,0,0,.16-.17h0M996.39,553a.17.17,0,0,0,.18-.17.18.18,0,0,0-.17-.18h0a.18.18,0,0,0-.17.18h0a.18.18,0,0,0,.17.17m-.14-2.06a.19.19,0,0,0-.19-.19.19.19,0,0,0-.2.19.2.2,0,1,0,.39,0m-.83,4.46a.19.19,0,1,0,0-.38.19.19,0,0,0-.19.19h0a.2.2,0,0,0,.19.19m.47,5.6a.12.12,0,0,0,.11-.12.11.11,0,0,0-.11-.11h0a.11.11,0,0,0-.11.11h0a.12.12,0,0,0,.11.12M994.17,556a.23.23,0,0,0,.23-.23.23.23,0,1,0-.45,0,.23.23,0,0,0,.22.23m.34,3.64a.19.19,0,1,0,0-.37.18.18,0,0,0-.18.18h0a.18.18,0,0,0,.18.18m-.14-1.83a.2.2,0,1,0,0-.39.2.2,0,0,0,0,.39m.7-6.22a.23.23,0,1,0-.22.22.24.24,0,0,0,.22-.22m.09,2.06a.21.21,0,0,0,.21-.22h0a.21.21,0,1,0-.42,0,.21.21,0,0,0,.21.22m.63,5.57a.15.15,0,0,0,.14-.15.14.14,0,0,0-.14-.14.14.14,0,0,0-.14.14.15.15,0,0,0,.14.15m-5.58-3.41a.36.36,0,0,0,.36-.36h0a.36.36,0,0,0-.36-.36.36.36,0,0,0-.36.36h0a.37.37,0,0,0,.35.36h0m.12-2a.38.38,0,0,0-.37-.38h0a.39.39,0,0,0-.37.38.38.38,0,0,0,.75,0m.08,3.73a.33.33,0,0,0,.33-.34.34.34,0,0,0-.67,0,.34.34,0,0,0,.34.34h0m.16,1.69a.31.31,0,0,0,.31-.31.32.32,0,1,0-.63,0,.31.31,0,0,0,.32.31m-1.15,3.18a.3.3,0,1,0,.31.3.3.3,0,0,0-.31-.3h0m2.53-1.89a.26.26,0,0,0,0-.51.26.26,0,0,0-.26.26.26.26,0,0,0,.26.25m-2.5,7.21a.2.2,0,0,0-.2-.2.21.21,0,0,0-.21.2.2.2,0,0,0,.21.2.2.2,0,0,0,.2-.2m.93-7.09a.3.3,0,0,0,.29.3.3.3,0,1,0-.29-.3m-1.29,8.89a.15.15,0,0,0,.15-.15.15.15,0,0,0-.15-.15.15.15,0,0,0-.14.16.17.17,0,0,0,.14.14m.5-3.46a.24.24,0,0,0-.24-.24.24.24,0,1,0,.24.24h0m.1-1.68a.28.28,0,1,0-.26.26.27.27,0,0,0,.26-.26m1.83-11.11a.34.34,0,0,0-.68,0,.34.34,0,0,0,.68,0m.15,3.77a.31.31,0,1,0-.31-.31.31.31,0,0,0,.31.31m-.22-1.73h0m.39,3.46a.28.28,0,0,0,.27-.28.27.27,0,0,0-.27-.28.28.28,0,0,0-.29.28.3.3,0,0,0,.29.28m-1.42,10.54a.11.11,0,0,0,.1-.11.1.1,0,0,0-.1-.11.11.11,0,0,0,0,.22m.45-3.5a.21.21,0,1,0-.21.2.2.2,0,0,0,.21-.2m-.14,1.7a.16.16,0,0,0-.16-.16.17.17,0,0,0-.17.16.18.18,0,0,0,.17.17.17.17,0,0,0,.16-.17M991,564a.23.23,0,0,0-.23-.24.24.24,0,1,0,.24.24m-.24-2a.27.27,0,0,0-.27.27.26.26,0,0,0,.27.26.25.25,0,0,0,.26-.25h0a.27.27,0,0,0-.26-.27h0m-39.9-18.11a1.34,1.34,0,0,0-.54-.59c-.42-.25-.73-.16-1-.43s-.2-.65-.39-1a.53.53,0,0,0-.44-.26.61.61,0,0,0-.55.53c-.78,4.24-2.67,6-2.67,7a.7.7,0,0,0,.61.6c.75,0,5-5.78,5-5.78m45.86,11a.15.15,0,0,0,.13-.16.15.15,0,0,0-.29,0,.15.15,0,0,0,.16.15M992.35,533a.38.38,0,1,0-.38-.38h0a.38.38,0,0,0,.38.38m-1,.92a.42.42,0,0,0,0-.83h0a.42.42,0,0,0,0,.83m-1,.92a.45.45,0,0,0,.45-.45.45.45,0,0,0-.45-.45h0a.45.45,0,0,0-.44.45.45.45,0,0,0,.44.45h0m-1,.9a.49.49,0,0,0,.49-.49.48.48,0,0,0-.49-.48h0a.48.48,0,0,0-.52.45.49.49,0,0,0,.46.52h.06m4-3.68a.34.34,0,1,0,0-.68.34.34,0,0,0-.34.34.34.34,0,0,0,.34.34m.77,1.45a.31.31,0,1,0,0-.62h0a.31.31,0,1,0,0,.62h0m.21-2.4a.31.31,0,0,0,0-.62.31.31,0,0,0-.31.31h0a.31.31,0,0,0,.31.31h0m-1.22,3.32a.35.35,0,0,0,.35-.35.35.35,0,0,0-.35-.34.34.34,0,0,0-.34.34.35.35,0,0,0,.34.35m-4.79,2.21a.53.53,0,1,0,0-1h0a.53.53,0,0,0,0,1m-19,38.34a.42.42,0,0,0-.41.42.41.41,0,0,0,.42.41.41.41,0,0,0,.41-.41.42.42,0,0,0-.42-.42m1.34,0a.38.38,0,1,0,.38.38.38.38,0,0,0-.38-.38m18.49-17.12a.37.37,0,1,0-.38-.37.38.38,0,0,0,.38.37m-17.74,16.62a.41.41,0,0,0-.42-.41.41.41,0,0,0-.41.41.41.41,0,0,0,.41.42.42.42,0,0,0,.42-.42h0m23.44-39.48a.28.28,0,0,0,0-.56.28.28,0,0,0-.28.28h0a.28.28,0,0,0,.28.28m-9.66,4.21a.61.61,0,0,0,.61-.62.62.62,0,1,0-1.23,0,.62.62,0,0,0,.62.62m2.07-1.75a.57.57,0,0,0,.59-.53.56.56,0,0,0-.53-.58h-.05a.56.56,0,0,0-.54.58.57.57,0,0,0,.53.53m-1,.88a.59.59,0,0,0,0-1.18h0a.59.59,0,1,0,0,1.18" transform="translate(-944.3 -525.95)"/><path d="M947.56,576h14a.63.63,0,0,0,.59-.42.6.6,0,0,0,1.15-.21s0-.06,0-.09a.66.66,0,0,0,.32-.54s0,0,0,0l.13-.08a.28.28,0,0,0,0,.09,1,1,0,0,0,0,.17.55.55,0,1,0,.79.47.28.28,0,0,0,0-.09.59.59,0,0,0,.38-.55s0-.08,0-.11a.67.67,0,0,0,.39-.72l.07,0s0,.06,0,.09a.76.76,0,0,0,.06.26.56.56,0,0,0-.27.72.52.52,0,0,0-.34.49.53.53,0,1,0,1.05,0,.57.57,0,0,0,0-.18.56.56,0,0,0,.39-.53.57.57,0,0,0,0-.18.61.61,0,0,0,.42-.58.57.57,0,0,0,0-.18.65.65,0,0,0,.21-.16.58.58,0,0,0-.06.26.57.57,0,0,0,.09.32.51.51,0,0,0-.31.66.31.31,0,0,0,0,.1.49.49,0,0,0,.11,1,.48.48,0,0,0,.49-.48.44.44,0,0,0-.06-.25.52.52,0,0,0,.42-.61.78.78,0,0,0,0-.14.59.59,0,0,0,.42-.72l0-.09a.65.65,0,0,0,.36-.82v0a1,1,0,0,0,.22-.18.65.65,0,0,0-.08.31.61.61,0,0,0,.11.35.56.56,0,0,0-.33.72.52.52,0,0,0,.1.18.5.5,0,0,0-.39.48.52.52,0,0,0,.14.34.45.45,0,0,0-.44.46.46.46,0,0,0,.47.44.45.45,0,0,0,.45-.45.46.46,0,0,0-.11-.3.48.48,0,0,0,.48-.49.54.54,0,0,0-.1-.3.56.56,0,0,0,.49-.55.54.54,0,0,0-.1-.3.61.61,0,0,0,.44-.58.56.56,0,0,0-.09-.31.65.65,0,0,0,.41-.61.59.59,0,0,0-.09-.32.69.69,0,0,0,.32-.91l0-.06a.71.71,0,0,0,.14-.1.59.59,0,0,0,0,.23A.88.88,0,0,1,970,572a.76.76,0,0,0,.12.19.58.58,0,0,0-.38.72.59.59,0,0,0,.14.23.54.54,0,0,0-.4.64.52.52,0,0,0,.22.32h0a.47.47,0,0,0-.46.46.46.46,0,0,0,.91,0,.45.45,0,0,0-.19-.37H970a.54.54,0,0,0,.53-.54.5.5,0,0,0-.14-.35.59.59,0,0,0,.48-.67.72.72,0,0,0-.13-.28.61.61,0,0,0,.45-.59.59.59,0,0,0-.14-.38.65.65,0,0,0,.39-.83.72.72,0,0,0-.11-.19.67.67,0,0,0,.35-.88.86.86,0,0,0-.1-.16.71.71,0,0,0,.38-.63v0a.65.65,0,0,0,.16.21.64.64,0,0,0-.17,1.08.62.62,0,0,0-.39.78.7.7,0,0,0,.19.28.59.59,0,0,0-.44.57.58.58,0,0,0,.23.46.55.55,0,0,0-.75.2.54.54,0,0,0,.19.75.53.53,0,0,0,.37.07h0a.51.51,0,0,0-.5.5.5.5,0,0,0,.5.5.49.49,0,0,0,.5-.49.5.5,0,0,0-.24-.43h0a.55.55,0,0,0,.69-.86.55.55,0,0,0-.35-.12.58.58,0,0,0,.82-.06.58.58,0,0,0-.06-.82.55.55,0,0,0-.44-.14.62.62,0,0,0,.87-.05.63.63,0,0,0,0-.88.65.65,0,0,0-.55-.14.63.63,0,0,0,.43-.78.67.67,0,0,0-.19-.3.7.7,0,0,0,.43-.63.66.66,0,0,0-.23-.5.67.67,0,0,0,.4-.71.76.76,0,0,0,.25.28.64.64,0,0,0-.41.8.67.67,0,0,0,.28.36.61.61,0,0,0-.46.6.58.58,0,0,0,.32.53.61.61,0,0,0-.51.59.6.6,0,0,0,.34.53.56.56,0,0,0,0,1.12.57.57,0,0,0,.57-.56.57.57,0,0,0-.31-.5.58.58,0,0,0,.58-.6.63.63,0,0,0-.3-.51.6.6,0,0,0,.83-.21.62.62,0,0,0-.22-.84.67.67,0,0,0-.37-.08.64.64,0,0,0,.49-.63.61.61,0,0,0-.29-.53.66.66,0,0,0,.92-.2.68.68,0,0,0-.2-.92.65.65,0,0,0-.56-.07.7.7,0,0,0,.43-.64.68.68,0,0,0,0-.14.68.68,0,0,0,.37.34.63.63,0,0,0,0,1.23.61.61,0,1,0-.22,1.21.47.47,0,0,0,.17,0H975a.59.59,0,1,0,0,1.18h0a.59.59,0,0,0,.11-1.17h.06a.61.61,0,0,0,.61-.62.6.6,0,0,0-.43-.58.64.64,0,0,0,.59-.69.65.65,0,0,0-.41-.54.67.67,0,0,0,.51-.78.64.64,0,0,0-.39-.47.68.68,0,0,0,.45-.85.62.62,0,0,1,.05-1.17.66.66,0,0,0,.42.27.66.66,0,1,0,.78.65h0a.65.65,0,0,0-.52-.64.67.67,0,0,0,.05-1.3.7.7,0,0,0,.47-.66.88.88,0,0,0,0-.16.67.67,0,0,0,1.22-.37.67.67,0,0,0-.63-.66.69.69,0,0,0,.53-.82l0-.09a.66.66,0,0,0,1.23-.32.66.66,0,0,0-1.31,0,.45.45,0,0,0,0,.23.69.69,0,0,0-.48-.33.7.7,0,0,0,.42-.8.68.68,0,0,0,1,.07.67.67,0,0,0,.07-1,.63.63,0,0,0-.51-.24.71.71,0,0,0,.47-.86.65.65,0,0,0,.51.25.67.67,0,1,0-.67-.67.57.57,0,0,0,0,.18.74.74,0,0,0-.46-.26.71.71,0,0,0,.39-.63.61.61,0,0,0,0-.14.69.69,0,0,0,1,0,.67.67,0,0,0,.14-.72.66.66,0,0,0,.93.14.68.68,0,0,0,.14-.93.67.67,0,0,0-.93-.13.66.66,0,0,0-.23.76.7.7,0,0,0-.55-.28.7.7,0,0,0,.39-.82.69.69,0,0,0,1,0,.7.7,0,0,0,.19-.47.68.68,0,0,0-.08-.31.65.65,0,0,0,.55.3.66.66,0,1,0-.66-.66.61.61,0,0,0,.08.3.6.6,0,1,1-.26-1.17.68.68,0,0,0-.64-.49.72.72,0,0,0,.29-.77.7.7,0,0,0,1.08-.8.66.66,0,0,0,.94,0,.66.66,0,0,0,0-.94.67.67,0,0,0-.95,0,.72.72,0,0,0-.2.48.59.59,0,0,0,0,.23.71.71,0,0,0-.5-.21h0a.69.69,0,0,0,.33-.6,1.23,1.23,0,0,0,0-.19.66.66,0,0,0,.41.14.69.69,0,0,0,.7-.67.64.64,0,0,0-.07-.31.68.68,0,0,0,.48.2.66.66,0,1,0-.66-.66.6.6,0,0,0,.06.27.7.7,0,0,0-.6-.21.71.71,0,0,0,.33-.6.85.85,0,0,0,0-.22.68.68,0,0,0,1-.12.68.68,0,0,0,0-.78.65.65,0,0,0,.49.24.67.67,0,0,0,.66-.66.66.66,0,0,0-1.32,0,.64.64,0,0,0,.1.33.57.57,0,1,1-.39-1.08.67.67,0,0,0,.95-.14.69.69,0,0,0-.13-1,.7.7,0,0,0-.42-.13.47.47,0,0,0-.16,0,.73.73,0,0,0,.31-.58.76.76,0,0,0,0-.27.67.67,0,0,0,.94-.15.74.74,0,0,0,.13-.41.68.68,0,0,0-1.36,0,.75.75,0,0,0,.05.26.71.71,0,0,0-1.11.75.8.8,0,0,0-.37-.11.74.74,0,0,0-.73.75.62.62,0,0,0,0,.13.68.68,0,0,0-.34-.08.76.76,0,0,0-.76.76v.08a.79.79,0,0,0-1,.43.77.77,0,0,0-.06.3v0a.54.54,0,0,0-.28,0,.8.8,0,0,0-.8.81h0a.82.82,0,0,0-.77.13L972,548c-12.89,10.43-12.07,18.22-16.37,18.22a2.92,2.92,0,0,1-2.94-2.91v0c0-5.9,14.77-17.22,14.77-26.29a7,7,0,0,0-7-7,15.13,15.13,0,0,0-10.82,4.58,7.59,7.59,0,0,0-2.39,4.76c0,.84.34,1.38.93,1.38,2,0,3.76-2.67,4-3a.17.17,0,0,1,.17-.09.2.2,0,0,1,.2.2c0,.36-1.63,1.69-1.63,3.76a2.1,2.1,0,0,0,.86,1.69c3.22-1.23,4.21-3.67,5.14-5.85.66-1.53,1.59-3.35,3.57-3.35a2.93,2.93,0,0,1,2.93,2.92c0,9.68-19,20.43-19,31.89,0,4,2.15,7.12,3.27,7.12M977,557.07a.84.84,0,0,0,.27.13.68.68,0,0,0-.35.61v.06a.68.68,0,0,0-.23-.14.76.76,0,0,0,.32-.6.13.13,0,0,0,0-.06m-.2,2a.74.74,0,0,0,.35-.62v-.09a.78.78,0,0,0,.35.18.69.69,0,0,0-.42.73.63.63,0,0,0-.28-.2m.9-5.16a.79.79,0,0,0,.27.1.71.71,0,0,0-.31.58.17.17,0,0,0,0,.07.94.94,0,0,0-.22-.12.75.75,0,0,0,.25-.63m.83-2a.71.71,0,0,0,.32.1.72.72,0,0,0-.3.59.28.28,0,0,0,0,.09.79.79,0,0,0-.28-.13.78.78,0,0,0,.26-.57.19.19,0,0,0,0-.08m-.23,3.37a.68.68,0,0,0-.37.71.92.92,0,0,0-.29-.17.72.72,0,0,0,.31-.6v-.09a.73.73,0,0,0,.35.15m-1.1,5.2a.41.41,0,0,0,0,.16.74.74,0,0,0-.37-.28.71.71,0,0,0,.4-.76.69.69,0,0,0,.48.23.66.66,0,0,0-.53.65m.94-3.24a.59.59,0,0,0,0,.13.78.78,0,0,0-.38-.23.72.72,0,0,0,.37-.74.67.67,0,0,0,.47.19.67.67,0,0,0-.48.65m.72-3.31s0,.08,0,.13a.67.67,0,0,0-.35-.19.71.71,0,0,0,.3-.71.7.7,0,0,0,.44.14h0a.71.71,0,0,0-.4.63m.44-4a.7.7,0,0,0,.37.11.71.71,0,0,0-.29.7.81.81,0,0,0-.33-.14.77.77,0,0,0,.25-.67m.88,1.38a.69.69,0,0,0-.43.8.65.65,0,0,0-.41-.19.74.74,0,0,0,.3-.74.73.73,0,0,0,.54.13m.61-4.75a.57.57,0,0,0,0,.18.69.69,0,0,0-.41-.15.47.47,0,0,1,.7-.61.71.71,0,0,0-.32.58m1-4.56a.63.63,0,0,0,0-.19.72.72,0,0,0,.52.06.7.7,0,0,0-.25.79.71.71,0,0,0-.43-.14h0a.81.81,0,0,0,.21-.52m-.19,1.94.17,0a.67.67,0,0,0-.29.79.71.71,0,0,0-.44-.15h0a.72.72,0,0,0,.21-.72.68.68,0,0,0,.36.1m-.86-1.27a.78.78,0,0,0,.31.07h0a.68.68,0,0,0-.18.65.92.92,0,0,0-.32-.1.77.77,0,0,0,.15-.62m-.54,2a.73.73,0,0,0,.33.08h0a.7.7,0,0,0-.22.51.32.32,0,0,0,0,.14.87.87,0,0,0-.31-.1.79.79,0,0,0,.16-.63M980,548a.61.61,0,0,0,0-.14.68.68,0,0,0,.38.11h0a.67.67,0,0,0-.32.58.77.77,0,0,0,0,.15.68.68,0,0,0-.37-.15A.73.73,0,0,0,980,548m-.34-4.52a.86.86,0,0,0,.23,0,.74.74,0,0,0-.14.56.57.57,0,0,0-.22-.07.77.77,0,0,0,.14-.44s0-.07,0-.1m-.09,3.28v-.11a.64.64,0,0,0,.3.08.72.72,0,0,0-.21.64,1,1,0,0,0-.28-.11.78.78,0,0,0,.19-.5m-.46-1.29a.54.54,0,0,0,.22,0,.72.72,0,0,0-.16.56L979,546a.79.79,0,0,0,.14-.54m-.2,3.19a.83.83,0,0,0,.28.08.71.71,0,0,0-.24.53s0,.06,0,.09a.77.77,0,0,0-.25-.1.83.83,0,0,0,.21-.52s0-.06,0-.08m-.28-4.33.13,0a.84.84,0,0,0-.12.48l-.12,0a.8.8,0,0,0,.11-.4v-.06m-.13,3.13a1.06,1.06,0,0,0,.19.06.75.75,0,0,0-.18.48s0,0,0,.07a.67.67,0,0,0-.18-.07.75.75,0,0,0,.16-.48v-.06m-.07,3.27a.68.68,0,0,0-.24.53v.07a.72.72,0,0,0-.2-.09.76.76,0,0,0,.2-.53v-.06l.24.08m-.38-4.43.13,0a.76.76,0,0,0-.14.43v.05l-.1,0a.82.82,0,0,0,.12-.43.06.06,0,0,0,0,0m-.22,3.18v0l.16,0a.76.76,0,0,0-.19.5v0l-.14-.06a.79.79,0,0,0,.17-.49m-.4-1.19v0l.09,0a.8.8,0,0,0-.14.45v0s0,0-.08,0a.81.81,0,0,0,.13-.45m0,4.38v0a.67.67,0,0,0,.18.07.72.72,0,0,0-.24.55v0a.83.83,0,0,0-.16-.09.75.75,0,0,0,.22-.53m-.32-1.23v0l.12,0a.74.74,0,0,0-.2.51v0l-.09,0a.85.85,0,0,0,.17-.51m-.52,3.17v0l.13,0a.87.87,0,0,0-.17.21.67.67,0,0,0,0-.24m.23,1.24v0a.88.88,0,0,0,.2.09.73.73,0,0,0-.29.58v0a1,1,0,0,0-.17-.1.76.76,0,0,0,.27-.58m-.81,6.43v.11a.75.75,0,0,0-.26-.24.71.71,0,0,0,.38-.63v-.07a.63.63,0,0,0,.33.2.67.67,0,0,0-.45.63m.5-7.31a.57.57,0,0,0,0,.22v0l-.1-.05a1.33,1.33,0,0,0,.14-.19m-.17,5.39a.7.7,0,0,0-.39.62v.07a.68.68,0,0,0-.21-.17.73.73,0,0,0,.34-.62v0a.61.61,0,0,0,.26.15m-.5-.67v0a.58.58,0,0,0-.15-.11.75.75,0,0,0,.3-.6v0a.69.69,0,0,0,.19.1.72.72,0,0,0-.34.61m0-1.93h0l.13.06a.81.81,0,0,0-.16.16.71.71,0,0,0,0-.21m-.14.44a1.23,1.23,0,0,0,0,.2h0l-.1-.07a.53.53,0,0,0,.12-.14m-.82,2.65.12.07a.86.86,0,0,0-.14.13.46.46,0,0,0,0-.2m0,1.22h0l.17.11a.82.82,0,0,0-.26.23.66.66,0,0,0,.09-.33m-.22-.73a.55.55,0,0,0,0,.18l-.09-.07.11-.11m.1,1.13a.68.68,0,0,0-.08.31v0a.69.69,0,0,0-.13-.11,1.1,1.1,0,0,0,.21-.22m.11.82v0a.66.66,0,0,0,.23.17.69.69,0,0,0-.41.68.66.66,0,0,0-.19-.18.72.72,0,0,0,.37-.63m0,1.21v-.06a.7.7,0,0,0,.28.23.66.66,0,0,0-.43.76.49.49,0,0,1,.15-.93m-1.16-.67.09.07-.11.08a.77.77,0,0,0,0-.15m-.07,1.15a.44.44,0,0,0,.15.12.75.75,0,0,0-.2.15.86.86,0,0,0,0-.27m-.16-.63a.27.27,0,0,0,0,.13l-.07-.07.09-.06m0,1.1a.8.8,0,0,0-.05.26h0a.49.49,0,0,0-.12-.13.46.46,0,0,0,.17-.14m.08.68v0a.65.65,0,0,0,.19.18.67.67,0,0,0-.4.68.68.68,0,0,0-.17-.21.71.71,0,0,0,.38-.63m-1.39,1.55a.58.58,0,0,0,.1.12.53.53,0,0,0-.15.11.86.86,0,0,0,0-.23m-.23.5a.57.57,0,0,0,0,.22h0l-.09-.13.13-.1m-1.47,1.9a.12.12,0,0,1-.05.23.86.86,0,0,0,.05-.23m-1.91,1.79.07-.06a.77.77,0,0,0,0,.15.61.61,0,0,0,.12.37.5.5,0,0,0-.22.16.68.68,0,0,0,0-.62m-1.6,1.06.05,0a.65.65,0,0,0,.08.41.59.59,0,0,0-.18.13.67.67,0,0,0,0-.5m-1.28.44h0Zm22.42-33.62a.5.5,0,1,0,1,0h0a.5.5,0,1,0-1,0m4-4.41a.38.38,0,0,0,0-.76h0a.38.38,0,0,0,0,.76m5,23.39a.11.11,0,0,0,.11-.1.11.11,0,0,0-.22,0h0a.11.11,0,0,0,.11.1m.49-12.58a.16.16,0,0,0,.16-.15.16.16,0,0,0-.16-.16.16.16,0,0,0-.15.16.15.15,0,0,0,.15.15m-2.47-13.56a.27.27,0,1,0,0-.54h0a.27.27,0,1,0,0,.54m2.53,19.87a.13.13,0,0,0,0-.26.13.13,0,0,0,0,.26m0-10.7a.17.17,0,0,0,0-.33h0a.16.16,0,0,0-.16.16h0a.16.16,0,0,0,.16.16m-.16,8.65a.16.16,0,0,0-.15-.16.16.16,0,0,0-.16.16h0a.16.16,0,0,0,.16.15.15.15,0,0,0,.15-.15m-.47-10.8a.2.2,0,0,0,0,.39.19.19,0,0,0,.19-.19h0a.2.2,0,0,0-.19-.2h0m-.05,17.2a.12.12,0,0,0,.13-.12.13.13,0,0,0-.13-.13.13.13,0,0,0-.12.13.12.12,0,0,0,.12.12m0-12.67a.18.18,0,1,0,.36,0,.18.18,0,0,0-.36,0v0m-.18,4.37a.18.18,0,0,0,.18.18.18.18,0,0,0,.17-.18.17.17,0,0,0-.17-.17.17.17,0,0,0-.18.17h0m.49-11.26a.17.17,0,0,0,.17.17.16.16,0,0,0,.16-.16h0a.15.15,0,0,0-.16-.16h0a.17.17,0,0,0-.17.16m-1.83-.85a.25.25,0,1,0,.49,0,.25.25,0,1,0-.49,0h0m.53-2.25a.24.24,0,0,0,.24-.24h0a.24.24,0,0,0-.24-.24h0a.23.23,0,0,0-.24.23h0a.24.24,0,0,0,.24.24m1.27-6a.19.19,0,0,0,0-.38.2.2,0,0,0-.2.19.19.19,0,0,0,.2.19m-1.87,2a.27.27,0,0,0,0-.54h0a.27.27,0,0,0,0,.54m.8,1.5a.23.23,0,0,0,.23-.24.23.23,0,0,0-.23-.23h0a.23.23,0,0,0-.24.23.24.24,0,0,0,.24.24m.14-2.48a.23.23,0,0,0,.23-.24.23.23,0,0,0-.23-.23h0a.23.23,0,0,0-.23.24.23.23,0,0,0,.23.23m.82,1.51a.2.2,0,1,0,0-.39.18.18,0,0,0-.19.19.19.19,0,0,0,.19.2m-.16,2.54a.2.2,0,0,0,.22-.18.21.21,0,0,0-.19-.22h0a.2.2,0,0,0,0,.4m-.25,2.54a.21.21,0,1,0-.21-.21.21.21,0,0,0,.21.21m-12.47,4.38a.65.65,0,1,0-.65-.65.65.65,0,0,0,.65.65M976,575.66a.2.2,0,0,0,.19-.19h0a.19.19,0,1,0-.19.19m-.49-5.76a.55.55,0,0,0,.55.54.54.54,0,1,0,0-1.08h0a.55.55,0,0,0-.55.54m1.06,4.51a.25.25,0,1,0-.25.24.25.25,0,0,0,.25-.24m.42-1.13a.36.36,0,0,0-.36-.36.36.36,0,0,0,0,.72.36.36,0,0,0,.36-.36m.34-1.17h0m.48-5.72a.6.6,0,0,0,.59-.59.59.59,0,1,0-1.18,0,.58.58,0,0,0,.59.59" transform="translate(-944.3 -525.95)"/><path d="M976.54,566.79a.62.62,0,0,0,0-1.24.62.62,0,0,0,0,1.24m.08-2.53a.63.63,0,0,0,0,1.26.63.63,0,1,0,0-1.26m.74,11.36a.15.15,0,0,0,.14-.15.14.14,0,0,0-.14-.14.15.15,0,0,0-.15.14.15.15,0,0,0,.15.15m-1.09-6.37a.57.57,0,0,0,0-1.14.57.57,0,0,0,0,1.14m.15-1.22a.6.6,0,0,0,.6-.58h0a.6.6,0,1,0-.6.59m2.6,6.49a.17.17,0,0,0,.17-.17.18.18,0,0,0-.17-.17.17.17,0,0,0-.18.17h0a.18.18,0,0,0,.18.17m.92-2.68a.36.36,0,0,0-.36-.36.36.36,0,0,0,0,.72h0a.36.36,0,0,0,.36-.36h0m.94,1.18a.23.23,0,0,0-.23-.24.24.24,0,1,0,0,.47.23.23,0,0,0,.23-.23m-.65-2.48a.41.41,0,1,0-.82,0h0a.42.42,0,0,0,.41.42.41.41,0,0,0,.41-.41m.12,3.94a.15.15,0,0,0,.15-.14h0a.15.15,0,0,0-.15-.14h0a.15.15,0,0,0-.15.14.15.15,0,0,0,.15.15m-1.66,1.12a.12.12,0,0,0,.12-.12.12.12,0,1,0-.24,0,.12.12,0,0,0,.12.12m-.19-5.32a.44.44,0,0,0-.46.42.43.43,0,0,0,.42.46h0a.43.43,0,0,0,.44-.43h0a.44.44,0,0,0-.44-.44h0m.15,1.7h0m-.35,1.21a.32.32,0,0,0-.3-.33.32.32,0,0,0-.34.3v0a.32.32,0,0,0,.3.34.32.32,0,0,0,.34-.3v0m-.62,1.38a.2.2,0,1,0,0-.39.18.18,0,0,0-.19.19h0a.19.19,0,0,0,.19.2h0m1.91-1.46a.27.27,0,0,0-.27-.28.28.28,0,0,0-.28.28.28.28,0,0,0,.55,0M983,541.59h0m-.32,9.62a.63.63,0,1,0-.63-.63.63.63,0,0,0,.63.63m1.54-7.67a.63.63,0,1,0-.65-.65.64.64,0,0,0,.6.65h0m-2.57,5.65a.65.65,0,1,0,.65-.65.65.65,0,0,0-.65.65m.72-2.07a.64.64,0,0,0,.64.63.66.66,0,1,0-.64-.72v.09m.65-2.1a.63.63,0,1,0,1.26,0h0a.63.63,0,1,0-1.26,0m-5.16,20.06a.61.61,0,1,0-.61-.61.61.61,0,0,0,.61.61m9-26.48a.56.56,0,0,0,0,1.12h0a.56.56,0,0,0,0-1.12m1-.79a.52.52,0,0,0-.52.53h0a.52.52,0,0,0,.52.52.53.53,0,1,0,0-1.05m-2.11,1.58a.58.58,0,0,0-.59.59.58.58,0,0,0,.59.58.58.58,0,0,0,.59-.59.59.59,0,0,0-.59-.59m-1.06.78a.63.63,0,0,0-.65.6.62.62,0,0,0,.6.64h0a.61.61,0,0,0,.59-.64.63.63,0,0,0-.59-.6M989,556.29a.4.4,0,0,0,.39-.39h0a.39.39,0,0,0-.39-.39h0a.39.39,0,0,0-.4.39.4.4,0,0,0,.4.39h0m-9.9,3a.64.64,0,1,0,.64.64.64.64,0,0,0-.64-.64m2.17-6.67a.64.64,0,0,0,.64.64.64.64,0,0,0,.64-.64.64.64,0,0,0-1.28,0h0" transform="translate(-944.3 -525.95)"/><path d="M977.92,563.77a.63.63,0,0,0,.63-.63.63.63,0,0,0-.63-.63.63.63,0,0,0,0,1.26m1.22-1.84a.62.62,0,1,0,0-1.24.63.63,0,0,0-.63.62.62.62,0,0,0,.62.62m1.19-7.28A.65.65,0,1,0,981,554a.64.64,0,0,0-.64.64m-1,2a.65.65,0,0,0,.62.68.66.66,0,0,0,.68-.63v0a.65.65,0,0,0-.61-.69.64.64,0,0,0-.69.6v.09m.82,2a.63.63,0,0,0,.63-.63h0a.63.63,0,1,0-1.26,0h0a.63.63,0,0,0,.63.63m.13,1.39a.62.62,0,1,0-.61-.62.62.62,0,0,0,.61.62h0" transform="translate(-944.3 -525.95)"/><path d="M977.9,561.15a.65.65,0,1,0,.65.65.65.65,0,0,0-.65-.65m9,6.91a.28.28,0,1,0-.28.28.29.29,0,0,0,.28-.28m-.21,1.56a.23.23,0,0,0-.23-.23.23.23,0,1,0,0,.45.23.23,0,0,0,.23-.22h0m.38-3.14a.32.32,0,0,0-.32-.31.31.31,0,0,0-.31.31.31.31,0,0,0,.31.31.32.32,0,0,0,.32-.31m.1-1.59a.35.35,0,1,0-.34.35.35.35,0,0,0,.34-.35m-.31-2a.37.37,0,0,0-.37.38h0a.37.37,0,0,0,.74,0,.37.37,0,0,0-.37-.38m-.08-7.59a.47.47,0,0,0-.47-.49.49.49,0,0,0-.46.52.49.49,0,0,0,.46.45.48.48,0,0,0,.47-.48m-1.22,6.32a.43.43,0,0,0,0,.86.43.43,0,1,0,0-.86h0m1.28-.36a.41.41,0,0,0-.4.4h0a.4.4,0,0,0,.4.4h0a.39.39,0,0,0,.4-.39h0a.41.41,0,0,0-.4-.4h0m-.33-3.92a.47.47,0,0,0,.46-.47.47.47,0,1,0-.46.47m-.26,13.95a.16.16,0,0,0,.16-.16h0a.16.16,0,0,0-.16-.16.16.16,0,1,0,0,.32m2.92-17.06a.43.43,0,0,0-.45-.39.42.42,0,0,0-.38.39.41.41,0,0,0,.41.41.41.41,0,0,0,.42-.41m-.73,10.34a.31.31,0,1,0-.31.31.31.31,0,0,0,.31-.31m-.1,1.63a.27.27,0,0,0-.27-.27h0a.28.28,0,1,0,.28.28h0m-.19-3.61a.34.34,0,0,0-.34.34.34.34,0,1,0,.68,0,.34.34,0,0,0-.34-.34m-2.58.61a.42.42,0,0,0-.41.42.41.41,0,0,0,.41.41.42.42,0,0,0,0-.83m2.41-8.44a.45.45,0,0,0-.9,0h0a.45.45,0,0,0,.9,0h0m-.23,2a.43.43,0,0,0,.43-.43.44.44,0,0,0-.46-.4.42.42,0,1,0,0,.83m-.17,14.31a.11.11,0,0,0,.11-.11.11.11,0,0,0-.22,0,.11.11,0,0,0,.11.11m.39-1.68a.18.18,0,0,0-.19-.19.19.19,0,0,0-.19.18.19.19,0,0,0,.19.19.18.18,0,0,0,.19-.19m.21-1.6a.24.24,0,0,0-.23-.24.25.25,0,0,0-.24.25.23.23,0,0,0,.26.21.23.23,0,0,0,.21-.21m-2.56.43a.32.32,0,0,0-.31-.32.32.32,0,1,0,0,.63.31.31,0,0,0,.31-.31m-2.79,1.88a.34.34,0,0,0-.34-.34.34.34,0,1,0,0,.68.34.34,0,0,0,.34-.34h0m-.29,1.4a.28.28,0,0,0-.56,0,.29.29,0,0,0,.28.28.28.28,0,0,0,.28-.28m-.54,1.56a.19.19,0,0,0,.19-.2h0a.19.19,0,0,0-.38,0,.19.19,0,0,0,.19.2m1.06-4.39a.39.39,0,0,0-.77,0h0a.39.39,0,0,0,.77,0m.18-1.45a.42.42,0,1,0-.42.42.42.42,0,0,0,.42-.42h0m-1.7,3.07a.38.38,0,1,0-.37.37.38.38,0,0,0,.37-.37m1.79,2.63a.15.15,0,1,0,0-.3.15.15,0,0,0-.15.15.15.15,0,0,0,.15.15m2.58-7.79a.39.39,0,1,0-.39.39.38.38,0,0,0,.39-.39h0m-4.2,9.23a.11.11,0,0,0,.11-.11h0a.11.11,0,0,0-.22,0,.1.1,0,0,0,.11.11m.07-5.45a.42.42,0,0,0-.84,0h0a.41.41,0,0,0,.42.41.41.41,0,0,0,.42-.41m2.89,3.88a.11.11,0,0,0,.1-.1.11.11,0,0,0-.21,0h0a.1.1,0,0,0,.11.1m.73-3.06a.27.27,0,1,0-.27.27.27.27,0,0,0,.27-.27m-4.15,1.91a.32.32,0,0,0-.32-.32.31.31,0,1,0,.32.32m4.54-5a.35.35,0,1,0-.7,0,.34.34,0,0,0,.35.35h0a.35.35,0,0,0,.35-.35h0m-.87,4.75a.2.2,0,0,0,.2-.21.2.2,0,0,0-.4,0,.2.2,0,0,0,.2.21m-1.09-.07a.24.24,0,1,0-.24.24.24.24,0,0,0,.24-.24m.51-2.92a.34.34,0,1,0-.68,0,.34.34,0,0,0,.68,0m-.23,1.47a.3.3,0,1,0-.3.31.31.31,0,0,0,.3-.31m.4-3a.38.38,0,0,0-.38-.39.4.4,0,0,0-.39.39.39.39,0,0,0,.39.39.38.38,0,0,0,.38-.39m.13-1.51a.42.42,0,1,0-.41.42.41.41,0,0,0,.41-.42" transform="translate(-944.3 -525.95)"/></svg>