<svg xmlns="http://www.w3.org/2000/svg" viewBox="0 0 28.7 38.7"><style type="text/css"> .st0{fill:#000000;} </style><path class="st0" d="M14.5 37.3L13.7 36c0 0-3.9-6.1-7.7-12l-0.5-0.7c-2.1-3.2-4.3-6.6-4.3-9.2 0-7.3 5.9-13.2 13.2-13.2s13.2 5.9 13.2 13.2c0 2.5-2 5.6-4.1 8.9l-0.7 1c-3.8 5.9-7.6 11.9-7.6 11.9L14.5 37.3zM14.5 2.9c-6.2 0-11.2 5-11.2 11.2 0 2 2.1 5.2 3.9 8.1l0.4 0.6c2.7 4.3 5.5 8.6 6.9 10.7 1.3-2.1 4.1-6.3 6.8-10.6l0.7-1.1c1.8-2.9 3.8-5.9 3.8-7.8C25.7 8 20.6 2.9 14.5 2.9z"/><path class="st0" d="M14.6 18.6c-2.4 0-4.4-2-4.4-4.4s2-4.4 4.4-4.4 4.4 2 4.4 4.4S17 18.6 14.6 18.6zM14.6 11.8c-1.3 0-2.4 1.1-2.4 2.4s1.1 2.4 2.4 2.4 2.4-1.1 2.4-2.4S15.9 11.8 14.6 11.8z"/></svg>