<svg xmlns="http://www.w3.org/2000/svg" viewBox="0 0 512 507.62"><defs><style>.a{fill:#727272;}</style></defs><title>Global-Flag</title><path class="a" d="M272.73,272.73V376.41a289.8,289.8,0,0,1,83.84,17.49c11.17-36.29,17.74-77.67,19.08-121.17Z" transform="translate(0 -2.19)"/><path class="a" d="M136.35,272.73c1.34,43.5,7.9,84.88,19.08,121.17a290.13,290.13,0,0,1,83.84-17.49V272.73Z" transform="translate(0 -2.19)"/><path class="a" d="M155.43,118.1c-11.18,36.29-17.74,77.66-19.08,121.17H239.27V135.59A289.8,289.8,0,0,1,155.43,118.1Z" transform="translate(0 -2.19)"/><path class="a" d="M272.73,409.93v99.88c23.71-7.75,46.7-31.6,64.93-68.05,2.63-5.27,5.14-10.75,7.52-16.39A256.16,256.16,0,0,0,272.73,409.93Z" transform="translate(0 -2.19)"/><path class="a" d="M166.82,425.37c2.38,5.64,4.89,11.12,7.52,16.39,18.23,36.45,41.22,60.31,64.93,68.05V409.93A256.16,256.16,0,0,0,166.82,425.37Z" transform="translate(0 -2.19)"/><path class="a" d="M436.05,73.42a290.22,290.22,0,0,1-48.64,31.21C400.24,145,407.71,191,409.12,239.27H512A255.87,255.87,0,0,0,436.05,73.42Z" transform="translate(0 -2.19)"/><path class="a" d="M341.9,14.25a236.2,236.2,0,0,1,25.69,41q4.28,8.56,8.14,17.71A256.77,256.77,0,0,0,410.22,51.1,256.08,256.08,0,0,0,341.9,14.25Z" transform="translate(0 -2.19)"/><path class="a" d="M174.34,70.24c-2.63,5.27-5.14,10.75-7.52,16.39a256.16,256.16,0,0,0,72.45,15.44V2.19C215.56,9.93,192.57,33.79,174.34,70.24Z" transform="translate(0 -2.19)"/><path class="a" d="M101.79,51.1A256.67,256.67,0,0,0,136.27,73q3.87-9.14,8.14-17.71a236.2,236.2,0,0,1,25.69-41A255.87,255.87,0,0,0,101.79,51.1Z" transform="translate(0 -2.19)"/><path class="a" d="M375.73,439q-3.87,9.14-8.14,17.71a236.2,236.2,0,0,1-25.69,41,255.87,255.87,0,0,0,68.31-36.85A256.67,256.67,0,0,0,375.73,439Z" transform="translate(0 -2.19)"/><path class="a" d="M144.41,456.73q-4.28-8.57-8.14-17.71a256,256,0,0,0-34.48,21.88,255.87,255.87,0,0,0,68.31,36.85A236.2,236.2,0,0,1,144.41,456.73Z" transform="translate(0 -2.19)"/><path class="a" d="M102.88,272.73H0A255.87,255.87,0,0,0,76,438.58a290.22,290.22,0,0,1,48.64-31.21C111.76,367,104.29,321,102.88,272.73Z" transform="translate(0 -2.19)"/><path class="a" d="M409.12,272.73C407.71,321,400.24,367,387.41,407.38a289.54,289.54,0,0,1,48.64,31.2A255.85,255.85,0,0,0,512,272.73Z" transform="translate(0 -2.19)"/><path class="a" d="M356.57,118.1a289.8,289.8,0,0,1-83.84,17.49V239.27H375.65C374.31,195.76,367.74,154.39,356.57,118.1Z" transform="translate(0 -2.19)"/><path class="a" d="M337.66,70.24c-18.23-36.45-41.22-60.31-64.93-68v99.88a256.16,256.16,0,0,0,72.45-15.44C342.8,81,340.3,75.51,337.66,70.24Z" transform="translate(0 -2.19)"/><path class="a" d="M76,73.42A255.87,255.87,0,0,0,0,239.27H102.88c1.4-48.22,8.88-94.28,21.71-134.64A290.22,290.22,0,0,1,76,73.42Z" transform="translate(0 -2.19)"/></svg>