<svg xmlns="http://www.w3.org/2000/svg" viewBox="0 0 49.9 36.9"><style type="text/css"> .st0{fill:#000000;} </style><path class="st0" d="M13.5 17c4.3 0 7.7-3.5 7.7-7.7s-3.5-7.7-7.7-7.7S5.7 5.1 5.7 9.3 9.2 17 13.5 17zM13.5 3.6c3.2 0 5.7 2.6 5.7 5.7 0 3.2-2.6 5.7-5.7 5.7 -3.2 0-5.7-2.6-5.7-5.7C7.7 6.1 10.3 3.6 13.5 3.6z"/><path class="st0" d="M19.3 18.5H7.8c-3.6 0-6.6 2.9-6.6 6.6v10.3h24.7V25C25.9 21.4 23 18.5 19.3 18.5zM23.9 33.4H3.2V25c0-2.5 2.1-4.6 4.6-4.6h11.5c2.5 0 4.6 2.1 4.6 4.6V33.4z"/><path class="st0" d="M48.7 7c-0.1-3.4-2.8-6.1-6.2-6.1H31.6c-3.4 0-6.2 2.7-6.2 6.1h0v0.1V13v0.1h0c0.1 3 2.3 5.6 5.2 6l0 5.6 8.7-5.5h3.2c3.4 0 6.2-2.7 6.2-6.1h0V13 7.1L48.7 7 48.7 7zM42.5 17.2h-3.7l-6.1 3.9 0-3.9h-1c-2.3 0-4.2-1.9-4.2-4.2V7.1c0-2.3 1.9-4.2 4.2-4.2h10.9c2.3 0 4.2 1.9 4.2 4.2V13C46.8 15.3 44.8 17.2 42.5 17.2z"/></svg>