<svg xmlns="http://www.w3.org/2000/svg" viewBox="0 0 28.8 33.8"><defs><style>.a{fill:#b8b7b6;}</style></defs><title>delete_tide</title><path class="a" d="M30.6,6H24.2l-3-3a.86.86,0,0,0-.6-.3H13.7a.71.71,0,0,0-.6.3l-3,3H3.6a.9.9,0,0,0,0,1.8h1L7.1,35.7a.82.82,0,0,0,.9.8H26.2a1,1,0,0,0,.9-.8L29.6,7.8h1a.9.9,0,0,0,0-1.8ZM25.4,34.7H8.8L6.4,7.7h3.9a.71.71,0,0,0,.6-.3l3-3h6.2l3,3a.86.86,0,0,0,.6.3h3.9Z" transform="translate(-2.7 -2.7)"/><path class="a" d="M10.9,10.5a.85.85,0,0,0-.8,1l1.5,20.1a.82.82,0,0,0,.9.8h.1a.85.85,0,0,0,.8-1L11.9,11.3A.89.89,0,0,0,10.9,10.5Z" transform="translate(-2.7 -2.7)"/><path class="a" d="M23.2,10.5a1,1,0,0,0-1,.8L20.7,31.4a1,1,0,0,0,.8,1h.1a.88.88,0,0,0,.9-.8L24,11.5A.81.81,0,0,0,23.2,10.5Z" transform="translate(-2.7 -2.7)"/><path class="a" d="M17.1,10.5a.9.9,0,0,0-.9.9V31.5a.9.9,0,0,0,1.8,0V11.3A.88.88,0,0,0,17.1,10.5Z" transform="translate(-2.7 -2.7)"/></svg>