<svg id="Layer_1" data-name="Layer 1" xmlns="http://www.w3.org/2000/svg" viewBox="0 0 258.1 101.99"><title>brandlogo</title><path d="M145.34,18.07a.58.58,0,0,0,.59.59.59.59,0,1,0,0-1.18.58.58,0,0,0-.59.59" transform="translate(0 0)"/><path d="M144,22.24a.61.61,0,1,0,.61-.61.61.61,0,0,0-.61.61" transform="translate(0 0)"/><path d="M144.72,20.16a.6.6,0,0,0,1.2,0,.6.6,0,1,0-1.2,0" transform="translate(0 0)"/><path d="M146.48,15.37a.59.59,0,1,0,.58.59.59.59,0,0,0-.58-.59" transform="translate(0 0)"/><path d="M149.18,15.32a.5.5,0,0,0-.5.5.51.51,0,0,0,.5.5.5.5,0,0,0,.5-.5.5.5,0,0,0-.5-.5" transform="translate(0 0)"/><path d="M145,24.22a.59.59,0,1,0-.59-.59.59.59,0,0,0,.59.59" transform="translate(0 0)"/><path d="M150.26,14.6a.46.46,0,1,0,0,.92.46.46,0,0,0,0-.92" transform="translate(0 0)"/><path d="M149.26,17.28a.47.47,0,1,0,.47-.47.47.47,0,0,0-.47.47" transform="translate(0 0)"/><path d="M147.54,14.63a.56.56,0,1,0,.56.56.56.56,0,0,0-.56-.56" transform="translate(0 0)"/><path d="M148.6,13.88a.53.53,0,0,0,0,1,.53.53,0,1,0,0-1" transform="translate(0 0)"/><path d="M144.06,34a.54.54,0,1,0-.53-.53.53.53,0,0,0,.53.53" transform="translate(0 0)"/><path d="M143.27,39.64a.47.47,0,1,0-.94,0,.47.47,0,0,0,.94,0" transform="translate(0 0)"/><path d="M142.9,36.27a.52.52,0,1,0,.52.52.52.52,0,0,0-.52-.52" transform="translate(0 0)"/><path d="M142.87,37.72a.5.5,0,1,0,.5.5.5.5,0,0,0-.5-.5" transform="translate(0 0)"/><path d="M144,32.56a.55.55,0,0,0,.55-.55.55.55,0,1,0-1.1,0,.55.55,0,0,0,.55.55" transform="translate(0 0)"/><path d="M142.89,34.82a.54.54,0,1,0,0,1.08.54.54,0,1,0,0-1.08" transform="translate(0 0)"/><path d="M143.63,25.69a.6.6,0,0,0,1.19,0,.6.6,0,1,0-1.19,0" transform="translate(0 0)"/><path d="M141.79,29.69a.61.61,0,1,0,1.22,0,.61.61,0,1,0-1.22,0" transform="translate(0 0)"/><path d="M142.74,27.71a.61.61,0,1,0,.61-.61.61.61,0,0,0-.61.61" transform="translate(0 0)"/><path d="M142.59,31.69a.59.59,0,0,0,.59-.6.6.6,0,0,0-1.19,0,.6.6,0,0,0,.6.6" transform="translate(0 0)"/><path d="M142.69,41.48a.44.44,0,0,0,.44-.44.45.45,0,1,0-.44.44" transform="translate(0 0)"/><path d="M152.85,17.37a.38.38,0,0,0-.75,0,.38.38,0,0,0,.75,0" transform="translate(0 0)"/><path d="M148.94,21.66a.48.48,0,0,0-.49-.49.49.49,0,1,0,0,1,.48.48,0,0,0,.49-.49" transform="translate(0 0)"/><path d="M144.13,35.44a.51.51,0,1,0-.51-.51.51.51,0,0,0,.51.51" transform="translate(0 0)"/><path d="M148.86,23.65a.47.47,0,1,0-.47-.48.47.47,0,0,0,.47.48" transform="translate(0 0)"/><path d="M146.87,26.44a.52.52,0,1,0-.51-.52.52.52,0,0,0,.51.52" transform="translate(0 0)"/><path d="M148.2,23.81a.5.5,0,0,0-.5-.51.51.51,0,0,0,0,1,.5.5,0,0,0,.5-.5" transform="translate(0 0)"/><path d="M151.77,18.08a.41.41,0,0,0-.41-.41.41.41,0,0,0,0,.82.41.41,0,0,0,.41-.41" transform="translate(0 0)"/><path d="M146,28.52a.53.53,0,1,0,0-1.05.53.53,0,0,0,0,1.05" transform="translate(0 0)"/><path d="M150.05,21a.46.46,0,1,0-.92,0,.46.46,0,0,0,.92,0" transform="translate(0 0)"/><path d="M151.86,20a.4.4,0,0,0,.39-.39.39.39,0,0,0-.39-.38.38.38,0,0,0-.38.38.39.39,0,0,0,.38.39" transform="translate(0 0)"/><path d="M150.69,18.78a.45.45,0,1,0-.44.45.44.44,0,0,0,.44-.45" transform="translate(0 0)"/><path d="M150.73,20.75a.43.43,0,0,0,0-.85.43.43,0,0,0,0,.85" transform="translate(0 0)"/><path d="M150.39,16.55a.44.44,0,0,0,.44.43.44.44,0,0,0,0-.87.44.44,0,0,0-.44.44" transform="translate(0 0)"/><path d="M152.4,13.13a.38.38,0,0,0-.39.39.39.39,0,0,0,.39.39.4.4,0,0,0,.39-.39.39.39,0,0,0-.39-.39" transform="translate(0 0)"/><path d="M153,19.33a.35.35,0,0,0,.35-.35.35.35,0,0,0-.7,0,.35.35,0,0,0,.35.35" transform="translate(0 0)"/><path d="M153,14.69a.37.37,0,0,0-.36.37.37.37,0,0,0,.73,0,.37.37,0,0,0-.37-.37" transform="translate(0 0)"/><path d="M151.33,13.87a.43.43,0,0,0,0,.85.43.43,0,1,0,0-.85" transform="translate(0 0)"/><path d="M151.52,15.81a.4.4,0,1,0,.4-.4.4.4,0,0,0-.4.4" transform="translate(0 0)"/><path d="M146.25,26.52a.55.55,0,0,0-.55-.55.55.55,0,0,0,0,1.09.55.55,0,0,0,.55-.54" transform="translate(0 0)"/><path d="M144.78,29.11a.55.55,0,0,0,.56-.55.56.56,0,0,0-.56-.56.55.55,0,0,0-.55.56.54.54,0,0,0,.55.55" transform="translate(0 0)"/><path d="M144.82,25.06a.57.57,0,1,0,1.13,0,.57.57,0,0,0-1.13,0" transform="translate(0 0)"/><path d="M143,29.12a.59.59,0,1,0,.59-.58.58.58,0,0,0-.59.58" transform="translate(0 0)"/><path d="M144,27.11a.57.57,0,0,0,.57.58.58.58,0,1,0,0-1.15.57.57,0,0,0-.57.57" transform="translate(0 0)"/><path d="M151.57,23.91a.39.39,0,0,0,.38-.38.38.38,0,0,0-.76,0,.39.39,0,0,0,.38.38" transform="translate(0 0)"/><path d="M156.22,12.51a.25.25,0,0,0,0,.5.25.25,0,1,0,0-.5" transform="translate(0 0)"/><path d="M156.35,16.65a.24.24,0,0,0,0,.48.24.24,0,0,0,0-.48" transform="translate(0 0)"/><path d="M155.77,14.92a.26.26,0,0,0-.26.27.25.25,0,0,0,.26.26.26.26,0,0,0,.27-.26.27.27,0,0,0-.27-.27" transform="translate(0 0)"/><path d="M155.55,10.85a.29.29,0,0,0,0,.57.29.29,0,0,0,0-.57" transform="translate(0 0)"/><path d="M156.23,21.3a.23.23,0,0,0,.24-.23.24.24,0,1,0-.47,0,.23.23,0,0,0,.23.23" transform="translate(0 0)"/><path d="M156,19.31a.25.25,0,0,0-.25-.25.25.25,0,1,0,0,.5.25.25,0,0,0,.25-.25" transform="translate(0 0)"/><path d="M153.91,22.62a.3.3,0,0,0,.3-.31.29.29,0,0,0-.3-.3.3.3,0,0,0-.31.3.31.31,0,0,0,.31.31" transform="translate(0 0)"/><path d="M154.91,20a.29.29,0,1,0-.29.29.29.29,0,0,0,.29-.29" transform="translate(0 0)"/><path d="M155.49,23.7a.25.25,0,0,0,0-.5.25.25,0,0,0,0,.5" transform="translate(0 0)"/><path d="M155.07,22a.26.26,0,0,0,.27-.27.26.26,0,0,0-.27-.27.28.28,0,0,0-.27.27.27.27,0,0,0,.27.27" transform="translate(0 0)"/><path d="M154.87,13.54a.29.29,0,1,0,.29-.29.29.29,0,0,0-.29.29" transform="translate(0 0)"/><path d="M154.3,24.32a.29.29,0,1,0,0-.57.29.29,0,0,0,0,.57" transform="translate(0 0)"/><path d="M151.34,12a.42.42,0,0,0,.84,0,.42.42,0,0,0-.84,0" transform="translate(0 0)"/><path d="M144.14,37.4a.47.47,0,1,0,.47.47.46.46,0,0,0-.47-.47" transform="translate(0 0)"/><path d="M150.26,12.83a.46.46,0,1,0,.46-.46.45.45,0,0,0-.46.46" transform="translate(0 0)"/><path d="M151.09,10.13a.45.45,0,1,0,.45.44.45.45,0,0,0-.45-.44" transform="translate(0 0)"/><path d="M152.8,10.83a.39.39,0,1,0,.38.38.38.38,0,0,0-.38-.38" transform="translate(0 0)"/><path d="M153.1,12.73a.36.36,0,1,0,.71,0,.36.36,0,0,0-.71,0" transform="translate(0 0)"/><path d="M154.86,9.26a.31.31,0,0,0-.32.3.32.32,0,0,0,.63,0,.3.3,0,0,0-.31-.3" transform="translate(0 0)"/><path d="M153.76,14.3a.32.32,0,0,0,.32.33.33.33,0,1,0-.32-.33" transform="translate(0 0)"/><path d="M154.19,11.94a.32.32,0,0,0,.32.32.32.32,0,1,0,0-.64.32.32,0,0,0-.32.32" transform="translate(0 0)"/><path d="M153.83,10.05a.35.35,0,0,0,0,.69.35.35,0,1,0,0-.69" transform="translate(0 0)"/><path d="M152.11,9.33a.41.41,0,0,0,0,.82.41.41,0,0,0,0-.82" transform="translate(0 0)"/><path d="M148.36,27.33a.47.47,0,0,0,.46-.46.47.47,0,0,0-.93,0,.47.47,0,0,0,.47.46" transform="translate(0 0)"/><path d="M145.38,35a.48.48,0,0,0,.48-.49.47.47,0,0,0-.48-.47.48.48,0,0,0-.48.47.49.49,0,0,0,.48.49" transform="translate(0 0)"/><path d="M148.05,25.81a.49.49,0,0,0,0-1,.49.49,0,0,0,0,1" transform="translate(0 0)"/><path d="M153.8,20.62a.33.33,0,0,0-.33-.33.32.32,0,0,0-.32.33.32.32,0,0,0,.32.33.33.33,0,0,0,.33-.33" transform="translate(0 0)"/><path d="M145.3,33.5a.5.5,0,0,0,.5-.5.51.51,0,0,0-.5-.5.5.5,0,0,0-.5.5.5.5,0,0,0,.5.5" transform="translate(0 0)"/><path d="M146.71,29.49a.51.51,0,0,0-.51-.5.51.51,0,0,0,0,1,.51.51,0,0,0,.51-.51" transform="translate(0 0)"/><path d="M144.16,35.91a.49.49,0,1,0,.49.49.49.49,0,0,0-.49-.49" transform="translate(0 0)"/><path d="M144.08,38.88a.44.44,0,0,0-.44.44.44.44,0,1,0,.88,0,.44.44,0,0,0-.44-.44" transform="translate(0 0)"/><path d="M145.17,32a.52.52,0,1,0-.52-.52.52.52,0,0,0,.52.52" transform="translate(0 0)"/><path d="M145.53,30a.54.54,0,1,0-.53.54.53.53,0,0,0,.53-.54" transform="translate(0 0)"/><path d="M147.66,27.43a.5.5,0,1,0-.5.5.49.49,0,0,0,.5-.5" transform="translate(0 0)"/><path d="M151.93,25.53a.36.36,0,0,0,0-.71.36.36,0,1,0,0,.71" transform="translate(0 0)"/><path d="M152.69,21.27a.38.38,0,0,0-.37-.37.37.37,0,0,0-.36.37.36.36,0,0,0,.36.36.37.37,0,0,0,.37-.36" transform="translate(0 0)"/><path d="M149.22,25.18a.45.45,0,1,0,0-.9.45.45,0,0,0,0,.9" transform="translate(0 0)"/><path d="M153.12,24.93a.33.33,0,0,0,.32-.32.32.32,0,0,0-.32-.32.32.32,0,0,0-.32.32.32.32,0,0,0,.32.32" transform="translate(0 0)"/><path d="M152.74,23.26a.34.34,0,1,0-.34-.34.34.34,0,0,0,.34.34" transform="translate(0 0)"/><path d="M146.17,23.53a.56.56,0,1,0,0-1.11.56.56,0,0,0,0,1.11" transform="translate(0 0)"/><path d="M150.45,22.55a.44.44,0,1,0-.87,0,.44.44,0,0,0,.87,0" transform="translate(0 0)"/><path d="M150.4,24.54a.41.41,0,0,0,.41-.41.41.41,0,0,0-.41-.42.42.42,0,0,0-.42.42.41.41,0,0,0,.42.41" transform="translate(0 0)"/><path d="M150.74,26.14a.4.4,0,1,0-.4-.4.4.4,0,0,0,.4.4" transform="translate(0 0)"/><path d="M151.57,21.91a.4.4,0,1,0-.4.4.4.4,0,0,0,.4-.4" transform="translate(0 0)"/><path d="M147.77,31.65a.44.44,0,0,0-.44.44.44.44,0,0,0,.88,0,.44.44,0,0,0-.44-.44" transform="translate(0 0)"/><path d="M136.05,45.8a.49.49,0,1,0-.49.48.49.49,0,0,0,.49-.48" transform="translate(0 0)"/><path d="M135.29,44.7a.53.53,0,1,0,.53-.52.53.53,0,0,0-.53.52" transform="translate(0 0)"/><path d="M134,47.91a.38.38,0,1,0-.37.37.38.38,0,0,0,.37-.37" transform="translate(0 0)"/><path d="M136.6,43.58a.56.56,0,1,0-.55.56.56.56,0,0,0,.55-.56" transform="translate(0 0)"/><path d="M135.7,46.85a.43.43,0,1,0-.85,0,.43.43,0,1,0,.85,0" transform="translate(0 0)"/><path d="M136,49.06a.23.23,0,0,0,.23-.23.24.24,0,0,0-.23-.23.23.23,0,0,0-.23.23.23.23,0,0,0,.23.23" transform="translate(0 0)"/><path d="M134.42,46.93a.46.46,0,0,0-.92,0,.46.46,0,0,0,.92,0" transform="translate(0 0)"/><path d="M145.19,21.55a.57.57,0,0,0,.57.58.58.58,0,0,0,.58-.58.57.57,0,0,0-.58-.57.56.56,0,0,0-.57.57" transform="translate(0 0)"/><path d="M134.65,49.1a.28.28,0,1,0-.28-.28.29.29,0,0,0,.28.28" transform="translate(0 0)"/><path d="M134.76,45.93a.52.52,0,1,0-.51.51.51.51,0,0,0,.51-.51" transform="translate(0 0)"/><path d="M135.3,47.87a.33.33,0,0,0-.33-.33.33.33,0,0,0,0,.66.33.33,0,0,0,.33-.33" transform="translate(0 0)"/><path d="M136.58,47.84a.29.29,0,0,0-.29-.29.29.29,0,0,0,0,.57.29.29,0,0,0,.29-.28" transform="translate(0 0)"/><path d="M156.89,18.42a.22.22,0,1,0,.22.22.22.22,0,0,0-.22-.22" transform="translate(0 0)"/><path d="M156.45,22.86a.22.22,0,1,0,.43,0,.22.22,0,0,0-.43,0" transform="translate(0 0)"/><path d="M149.13,32.87a.38.38,0,1,0,.38.38.38.38,0,0,0-.38-.38" transform="translate(0 0)"/><path d="M150.15,34.49a.32.32,0,1,0,.32-.32.32.32,0,0,0-.32.32" transform="translate(0 0)"/><path d="M150.39,32.49a.35.35,0,1,0,0,.69.35.35,0,0,0,0-.69" transform="translate(0 0)"/><path d="M137.33,45.67a.46.46,0,0,0-.46-.46.46.46,0,0,0,0,.91.46.46,0,0,0,.46-.45" transform="translate(0 0)"/><path d="M137,46.77a.39.39,0,1,0-.39.39.38.38,0,0,0,.39-.39" transform="translate(0 0)"/><path d="M157.66,16.17a.2.2,0,0,0-.2-.2.21.21,0,1,0,0,.41.2.2,0,0,0,.2-.21" transform="translate(0 0)"/><path d="M157.27,11.75a.22.22,0,0,0,0,.44.22.22,0,0,0,0-.44" transform="translate(0 0)"/><path d="M157.19,20.43a.2.2,0,1,0,.2-.2.2.2,0,0,0-.2.2" transform="translate(0 0)"/><path d="M156.86,14.21a.23.23,0,1,0,0,.46.23.23,0,1,0,0-.46" transform="translate(0 0)"/><path d="M158.79,28a.09.09,0,0,0,.1.1A.1.1,0,0,0,159,28a.11.11,0,0,0-.11-.11.1.1,0,0,0-.1.11" transform="translate(0 0)"/><path d="M159.43,23.46a.11.11,0,0,0-.1.1.11.11,0,0,0,.1.11.11.11,0,0,0,.11-.11.11.11,0,0,0-.11-.1" transform="translate(0 0)"/><path d="M159.74,14.69a.1.1,0,0,0-.1-.09.09.09,0,0,0-.09.09.09.09,0,0,0,.09.1.1.1,0,0,0,.1-.1" transform="translate(0 0)"/><path d="M154.33,35a.2.2,0,0,0-.19.19.19.19,0,0,0,.19.19.19.19,0,0,0,.2-.19.2.2,0,0,0-.2-.19" transform="translate(0 0)"/><path d="M159.34,10.45a.11.11,0,0,0,.12-.11.12.12,0,0,0-.12-.12.11.11,0,0,0-.11.12.11.11,0,0,0,.11.11" transform="translate(0 0)"/><path d="M159.6,7.86a.1.1,0,0,0,.11-.1.11.11,0,0,0-.11-.11.11.11,0,0,0-.1.11.1.1,0,0,0,.1.1" transform="translate(0 0)"/><path d="M159.86,2.49a.11.11,0,0,0-.11.11.11.11,0,0,0,.22,0,.11.11,0,0,0-.11-.11" transform="translate(0 0)"/><path d="M159.83.21a.11.11,0,0,0,.11-.1.11.11,0,1,0-.22,0,.11.11,0,0,0,.11.1" transform="translate(0 0)"/><path d="M159.77,5.28a.1.1,0,0,0,.11-.1.11.11,0,0,0-.11-.11.11.11,0,0,0-.1.11.1.1,0,0,0,.1.1" transform="translate(0 0)"/><path d="M159.68,19.22a.09.09,0,0,0,.1-.1.1.1,0,0,0-.2,0,.09.09,0,0,0,.1.1" transform="translate(0 0)"/><path d="M159.14,21.66a.13.13,0,1,0-.26,0,.13.13,0,0,0,.26,0" transform="translate(0 0)"/><path d="M155.61,34.68a.15.15,0,0,0-.15.15.15.15,0,0,0,.15.15.15.15,0,0,0,.15-.15.14.14,0,0,0-.15-.15" transform="translate(0 0)"/><path d="M155.64,36.55a.1.1,0,0,0-.1.11.1.1,0,0,0,.2,0,.1.1,0,0,0-.1-.11" transform="translate(0 0)"/><path d="M154.21,38.73a.11.11,0,0,0,.22,0,.11.11,0,1,0-.22,0" transform="translate(0 0)"/><path d="M154.52,37a.17.17,0,0,0-.17-.16.16.16,0,1,0,0,.32.17.17,0,0,0,.17-.16" transform="translate(0 0)"/><path d="M158.61,8.79a.17.17,0,0,0,.17-.16.17.17,0,0,0-.17-.17.16.16,0,0,0-.16.17.16.16,0,0,0,.16.16" transform="translate(0 0)"/><path d="M159,13a.12.12,0,0,0,.12-.12.13.13,0,0,0-.12-.13.13.13,0,0,0-.13.13A.12.12,0,0,0,159,13" transform="translate(0 0)"/><path d="M159,1.18a.15.15,0,0,0,.15-.14.15.15,0,0,0-.3,0,.15.15,0,0,0,.15.14" transform="translate(0 0)"/><path d="M159.27,17.26a.13.13,0,0,0-.13-.13.13.13,0,1,0,0,.26.13.13,0,0,0,.13-.13" transform="translate(0 0)"/><path d="M159,3.7a.14.14,0,0,0,.14-.15A.15.15,0,0,0,159,3.4a.15.15,0,0,0-.15.15.14.14,0,0,0,.15.15" transform="translate(0 0)"/><path d="M158.82,6.25a.16.16,0,0,0,.16-.16.16.16,0,0,0-.16-.15.15.15,0,0,0-.15.15.16.16,0,0,0,.15.16" transform="translate(0 0)"/><path d="M133,48.81a.32.32,0,0,0,.32.33.33.33,0,0,0,.33-.33.32.32,0,0,0-.33-.32.32.32,0,0,0-.32.32" transform="translate(0 0)"/><path d="M154.12,18a.31.31,0,1,0,.31.31.31.31,0,0,0-.31-.31" transform="translate(0 0)"/><path d="M155.24,17.87a.27.27,0,0,0,.27-.27.28.28,0,1,0-.55,0,.27.27,0,0,0,.28.27" transform="translate(0 0)"/><path d="M144.36,30.56a.56.56,0,0,0-.57-.57.57.57,0,0,0-.57.57.58.58,0,0,0,.57.57.57.57,0,0,0,.57-.57" transform="translate(0 0)"/><path d="M142,40a.5.5,0,1,0-.5.51A.5.5,0,0,0,142,40" transform="translate(0 0)"/><path d="M153.58,16.31a.34.34,0,1,0,.34.34.34.34,0,0,0-.34-.34" transform="translate(0 0)"/><path d="M141.64,35.23a.57.57,0,0,0-.57.57.58.58,0,0,0,.57.57.57.57,0,0,0,.57-.57.56.56,0,0,0-.57-.57" transform="translate(0 0)"/><path d="M141.6,38.05a.53.53,0,1,0,.53.53.52.52,0,0,0-.53-.53" transform="translate(0 0)"/><path d="M142.73,33.09a.58.58,0,1,0-.58-.58.58.58,0,0,0,.58.58" transform="translate(0 0)"/><path d="M141.6,35a.59.59,0,0,0,.59-.59.6.6,0,0,0-.59-.59.59.59,0,0,0-.59.59.58.58,0,0,0,.59.59" transform="translate(0 0)"/><path d="M141.65,36.64a.55.55,0,1,0,0,1.1.55.55,0,0,0,0-1.1" transform="translate(0 0)"/><path d="M142.83,33.37a.56.56,0,1,0,.56.56.56.56,0,0,0-.56-.56" transform="translate(0 0)"/><path d="M154.68,15.63a.29.29,0,0,0-.3.3.3.3,0,0,0,.3.3.31.31,0,0,0,.3-.3.3.3,0,0,0-.3-.3" transform="translate(0 0)"/><path d="M148.63,17.5a.5.5,0,0,0-.5.51.5.5,0,0,0,.5.5.5.5,0,0,0,.51-.5.51.51,0,0,0-.51-.51" transform="translate(0 0)"/><path d="M148.52,20.17a.51.51,0,0,0-.51-.51.52.52,0,0,0,0,1,.51.51,0,0,0,.51-.52" transform="translate(0 0)"/><path d="M148.1,16a.52.52,0,0,0-.52.53.53.53,0,1,0,1,0,.53.53,0,0,0-.53-.53" transform="translate(0 0)"/><path d="M147,16.77a.56.56,0,1,0,.56.55.56.56,0,0,0-.56-.55" transform="translate(0 0)"/><path d="M145.86,19.45a.57.57,0,0,0,.57.57.57.57,0,0,0,0-1.14.57.57,0,0,0-.57.57" transform="translate(0 0)"/><path d="M148.07,18.73a.54.54,0,1,0-.54.54.54.54,0,0,0,.54-.54" transform="translate(0 0)"/><path d="M148.65,19.48a.48.48,0,1,0,.48-.48.47.47,0,0,0-.48.48" transform="translate(0 0)"/><path d="M146.34,20.86a.55.55,0,0,0,.55.55.55.55,0,0,0,0-1.09.55.55,0,0,0-.55.54" transform="translate(0 0)"/><path d="M147.84,22.32a.52.52,0,0,0-.53-.52.52.52,0,1,0,0,1,.52.52,0,0,0,.53-.52" transform="translate(0 0)"/><path d="M146.54,23.9a.54.54,0,1,0,.54.54.54.54,0,0,0-.54-.54" transform="translate(0 0)"/><path d="M146.39,30.52a.5.5,0,0,0-.49.49.49.49,0,0,0,1,0,.5.5,0,0,0-.49-.49" transform="translate(0 0)"/><path d="M139.15,43.12a.5.5,0,0,0-.51-.5.5.5,0,0,0-.5.5.5.5,0,0,0,.5.51.51.51,0,0,0,.51-.51" transform="translate(0 0)"/><path d="M148.85,34.87a.36.36,0,1,0,.35-.36.36.36,0,0,0-.35.36" transform="translate(0 0)"/><path d="M145.42,35.55a.46.46,0,1,0,.46.46.47.47,0,0,0-.46-.46" transform="translate(0 0)"/><path d="M145.41,37.08a.44.44,0,1,0,.44.44.43.43,0,0,0-.44-.44" transform="translate(0 0)"/><path d="M146.53,32.07a.48.48,0,0,0-.47.48.47.47,0,0,0,.94,0,.48.48,0,0,0-.47-.48" transform="translate(0 0)"/><path d="M146.18,34.08a.45.45,0,1,0,.45-.44.45.45,0,0,0-.45.44" transform="translate(0 0)"/><path d="M150,26.31a.43.43,0,0,0-.43-.43.43.43,0,0,0-.43.43.43.43,0,0,0,.43.43.44.44,0,0,0,.43-.43" transform="translate(0 0)"/><path d="M147.46,33.67a.42.42,0,1,0,.42-.42.41.41,0,0,0-.42.42" transform="translate(0 0)"/><path d="M149,31.23a.4.4,0,0,0-.4.4.41.41,0,1,0,.81,0,.4.4,0,0,0-.41-.4" transform="translate(0 0)"/><path d="M150.07,10.92a.48.48,0,0,0-.49.48.49.49,0,1,0,1,0,.48.48,0,0,0-.48-.48" transform="translate(0 0)"/><path d="M140.34,38.39a.55.55,0,0,0-.56.55.56.56,0,1,0,1.11,0,.55.55,0,0,0-.55-.55" transform="translate(0 0)"/><path d="M140.4,35.64a.6.6,0,0,0-.6.6.6.6,0,0,0,1.2,0,.6.6,0,0,0-.6-.6" transform="translate(0 0)"/><path d="M141.87,41.32a.48.48,0,0,0-.47-.48.48.48,0,1,0,0,1,.48.48,0,0,0,.47-.48" transform="translate(0 0)"/><path d="M141.24,43.1a.44.44,0,0,0,.44-.44.45.45,0,1,0-.44.44" transform="translate(0 0)"/><path d="M140.78,40.28a.54.54,0,1,0-1.07,0,.54.54,0,0,0,1.07,0" transform="translate(0 0)"/><path d="M138,44.34a.47.47,0,1,0,.47-.46.47.47,0,0,0-.47.46" transform="translate(0 0)"/><path d="M140.39,37a.58.58,0,1,0,.58.57.58.58,0,0,0-.58-.57" transform="translate(0 0)"/><path d="M139.52,40.6a.56.56,0,1,0-.56.56.56.56,0,0,0,.56-.56" transform="translate(0 0)"/><path d="M139.35,41.87a.53.53,0,0,0-.53-.53.54.54,0,1,0,0,1.07.53.53,0,0,0,.53-.54" transform="translate(0 0)"/><path d="M139.94,43.37a.49.49,0,0,0,.48-.48.48.48,0,0,0-.48-.47.47.47,0,0,0-.47.47.48.48,0,0,0,.47.48" transform="translate(0 0)"/><path d="M140.62,41.6a.51.51,0,1,0-1,0,.51.51,0,0,0,1,0" transform="translate(0 0)"/><path d="M136.62,44.52a.5.5,0,1,0,.5-.5.5.5,0,0,0-.5.5" transform="translate(0 0)"/><path d="M155,27.81a.25.25,0,1,0-.25-.25.25.25,0,0,0,.25.25" transform="translate(0 0)"/><path d="M154,30.08a.26.26,0,1,0-.26-.26.26.26,0,0,0,.26.26" transform="translate(0 0)"/><path d="M154.92,25.78a.27.27,0,0,0-.27-.26.27.27,0,0,0,0,.53.27.27,0,0,0,.27-.27" transform="translate(0 0)"/><path d="M153.73,28.34a.28.28,0,1,0-.28-.28.27.27,0,0,0,.28.28" transform="translate(0 0)"/><path d="M154.26,33.59a.22.22,0,1,0,0-.43.21.21,0,0,0-.21.21.21.21,0,0,0,.21.22" transform="translate(0 0)"/><path d="M154.14,31.83a.24.24,0,0,0,0-.48.24.24,0,0,0,0,.48" transform="translate(0 0)"/><path d="M153.75,26.32a.31.31,0,0,0-.61,0,.31.31,0,0,0,.61,0" transform="translate(0 0)"/><path d="M153.27,37.24a.2.2,0,0,0-.4,0,.2.2,0,0,0,.4,0" transform="translate(0 0)"/><path d="M152.94,40.6a.1.1,0,1,0,0,.2.1.1,0,1,0,0-.2" transform="translate(0 0)"/><path d="M153.06,35.27a.23.23,0,1,0,0,.45.23.23,0,1,0,0-.45" transform="translate(0 0)"/><path d="M156.64,30.92a.16.16,0,0,0,.16-.16.16.16,0,0,0-.16-.17.17.17,0,0,0-.17.17.17.17,0,0,0,.17.16" transform="translate(0 0)"/><path d="M153.19,39a.16.16,0,0,0-.16-.16.16.16,0,0,0-.17.16.17.17,0,0,0,.17.17.17.17,0,0,0,.16-.17" transform="translate(0 0)"/><path d="M157.38,26.72a.17.17,0,0,0,0-.34.17.17,0,1,0,0,.34" transform="translate(0 0)"/><path d="M157.24,24.69a.19.19,0,1,0-.38,0,.19.19,0,1,0,.38,0" transform="translate(0 0)"/><path d="M156.43,29.09a.2.2,0,0,0,.19-.19.19.19,0,0,0-.19-.19.18.18,0,0,0-.19.19.19.19,0,0,0,.19.19" transform="translate(0 0)"/><path d="M156.89,34.61a.11.11,0,0,0,.11-.12.11.11,0,0,0-.11-.11.11.11,0,0,0-.12.11.12.12,0,0,0,.12.12" transform="translate(0 0)"/><path d="M155.19,29.59a.23.23,0,0,0,.23-.23.22.22,0,0,0-.23-.22.22.22,0,0,0-.22.22.23.23,0,0,0,.22.23" transform="translate(0 0)"/><path d="M155.53,33.18a.18.18,0,1,0-.18-.18.18.18,0,0,0,.18.18" transform="translate(0 0)"/><path d="M155.39,31.38a.2.2,0,0,0,.2-.21.2.2,0,1,0-.4,0,.2.2,0,0,0,.2.21" transform="translate(0 0)"/><path d="M156.08,25.24a.23.23,0,0,0-.46,0,.23.23,0,1,0,.46,0" transform="translate(0 0)"/><path d="M156.17,27.27a.21.21,0,0,0,.2-.21.2.2,0,0,0-.2-.21.21.21,0,0,0-.21.21.21.21,0,0,0,.21.21" transform="translate(0 0)"/><path d="M156.79,32.76a.14.14,0,0,0,.14-.14.14.14,0,1,0-.28,0,.14.14,0,0,0,.14.14" transform="translate(0 0)"/><path d="M151.28,29.4a.36.36,0,1,0-.35-.35.36.36,0,0,0,.35.35" transform="translate(0 0)"/><path d="M151.41,27.38a.38.38,0,0,0-.75,0,.38.38,0,0,0,.75,0" transform="translate(0 0)"/><path d="M151.48,31.06a.33.33,0,0,0,.33-.33.32.32,0,0,0-.33-.33.33.33,0,0,0-.33.33.33.33,0,0,0,.33.33" transform="translate(0 0)"/><path d="M151.64,32.73a.31.31,0,0,0,0-.62.31.31,0,1,0,0,.62" transform="translate(0 0)"/><path d="M150.51,35.86a.29.29,0,0,0-.3.3.3.3,0,0,0,.3.3.31.31,0,0,0,.3-.3.3.3,0,0,0-.3-.3" transform="translate(0 0)"/><path d="M153,34a.25.25,0,1,0-.25-.25A.25.25,0,0,0,153,34" transform="translate(0 0)"/><path d="M150.53,41.11a.2.2,0,1,0-.2.2.2.2,0,0,0,.2-.2" transform="translate(0 0)"/><path d="M151.45,34.12a.29.29,0,1,0,.57,0,.29.29,0,0,0-.57,0" transform="translate(0 0)"/><path d="M150.18,42.88a.15.15,0,0,0,.15-.15.15.15,0,0,0-.3,0,.15.15,0,0,0,.15.15" transform="translate(0 0)"/><path d="M150.67,39.47a.23.23,0,0,0-.23-.24.24.24,0,0,0,0,.48.23.23,0,0,0,.23-.24" transform="translate(0 0)"/><path d="M150.77,37.82a.27.27,0,0,0-.27-.27.27.27,0,1,0,0,.54.27.27,0,0,0,.27-.27" transform="translate(0 0)"/><path d="M152.58,26.85a.34.34,0,1,0-.34.34.34.34,0,0,0,.34-.34" transform="translate(0 0)"/><path d="M152.72,30.57a.3.3,0,0,0,0-.59.3.3,0,1,0,0,.59" transform="translate(0 0)"/><path d="M152.5,28.87a.32.32,0,1,0-.31-.31.31.31,0,0,0,.31.31" transform="translate(0 0)"/><path d="M152.89,32.28a.28.28,0,0,0,0-.55.28.28,0,1,0,0,.55" transform="translate(0 0)"/><path d="M151.49,42.68a.11.11,0,0,0,0-.22.11.11,0,1,0,0,.22" transform="translate(0 0)"/><path d="M151.93,39.22a.2.2,0,1,0-.2.2.2.2,0,0,0,.2-.2" transform="translate(0 0)"/><path d="M151.8,40.9a.17.17,0,0,0-.16-.16.17.17,0,1,0,.16.16" transform="translate(0 0)"/><path d="M152,37.53a.24.24,0,1,0-.47,0,.24.24,0,0,0,.47,0" transform="translate(0 0)"/><path d="M151.78,35.56a.27.27,0,1,0,.27.27.27.27,0,0,0-.27-.27" transform="translate(0 0)"/><path d="M112.43,17.7a1.3,1.3,0,0,0-.53-.59c-.41-.24-.72-.15-1-.42s-.19-.64-.38-1a.51.51,0,0,0-.43-.25.6.6,0,0,0-.55.52c-.77,4.18-2.63,6-2.63,6.86a.69.69,0,0,0,.6.6c.74,0,4.9-5.7,4.9-5.7" transform="translate(0 0)"/><path d="M157.66,28.58a.15.15,0,1,0-.15-.15.15.15,0,0,0,.15.15" transform="translate(0 0)"/><path d="M153.4,7a.38.38,0,0,0,.37-.37.38.38,0,0,0-.75,0,.38.38,0,0,0,.38.37" transform="translate(0 0)"/><path d="M152.41,7.88a.41.41,0,1,0-.41-.4.4.4,0,0,0,.41.4" transform="translate(0 0)"/><path d="M151.42,8.78a.44.44,0,1,0-.45-.44.44.44,0,0,0,.45.44" transform="translate(0 0)"/><path d="M150.42,9.68a.49.49,0,0,0,.48-.48.49.49,0,0,0-1,0,.49.49,0,0,0,.49.48" transform="translate(0 0)"/><path d="M154.37,6.05a.34.34,0,1,0-.34-.34.34.34,0,0,0,.34.34" transform="translate(0 0)"/><path d="M155.12,7.48a.3.3,0,0,0,.3-.31.3.3,0,1,0-.6,0,.3.3,0,0,0,.3.31" transform="translate(0 0)"/><path d="M155.33,5.11a.31.31,0,0,0,0-.61.31.31,0,0,0,0,.61" transform="translate(0 0)"/><path d="M154.13,8.38a.34.34,0,0,0,.34-.34.35.35,0,0,0-.34-.34.34.34,0,0,0-.34.34.34.34,0,0,0,.34.34" transform="translate(0 0)"/><path d="M149.4,10.56a.52.52,0,1,0-.51-.52.52.52,0,0,0,.51.52" transform="translate(0 0)"/><path d="M130.69,48.38a.41.41,0,0,0-.4.41.41.41,0,1,0,.81,0,.41.41,0,0,0-.41-.41" transform="translate(0 0)"/><path d="M132,48.43a.37.37,0,1,0,.37.37.37.37,0,0,0-.37-.37" transform="translate(0 0)"/><path d="M150.25,31.55a.37.37,0,1,0-.37-.37.37.37,0,0,0,.37.37" transform="translate(0 0)"/><path d="M132.75,47.94a.41.41,0,1,0-.41.41.41.41,0,0,0,.41-.41" transform="translate(0 0)"/><path d="M155.87,9a.28.28,0,0,0,.27-.28.27.27,0,0,0-.54,0,.28.28,0,0,0,.27.28" transform="translate(0 0)"/><path d="M146.34,13.15a.61.61,0,0,0,.61-.6.62.62,0,0,0-.61-.62.61.61,0,0,0-.61.62.6.6,0,0,0,.61.6" transform="translate(0 0)"/><path d="M148.39,11.43a.55.55,0,1,0-.55-.55.55.55,0,0,0,.55.55" transform="translate(0 0)"/><path d="M147.37,12.3a.58.58,0,1,0-.58-.58.58.58,0,0,0,.58.58" transform="translate(0 0)"/><path d="M109.22,49.36H123a.63.63,0,0,0,.58-.42.58.58,0,0,0,.54.38.59.59,0,0,0,.59-.59.25.25,0,0,0,0-.08.62.62,0,0,0,.31-.54v0l.12-.08v.09a1,1,0,0,0,0,.17.53.53,0,0,0-.32.49.55.55,0,1,0,1.1,0,.37.37,0,0,0,0-.11.58.58,0,0,0,.37-.55s0-.07,0-.1a.67.67,0,0,0,.4-.6s0-.08,0-.12l.06,0v.08a.53.53,0,0,0,.06.26.56.56,0,0,0-.27.71.51.51,0,0,0-.34.48.52.52,0,0,0,.52.52.52.52,0,0,0,.52-.52.86.86,0,0,0,0-.17.56.56,0,0,0,.39-.53.86.86,0,0,0,0-.17.61.61,0,0,0,.4-.58.47.47,0,0,0,0-.17.6.6,0,0,0,.22-.16.58.58,0,0,0-.06.26.54.54,0,0,0,.09.31.51.51,0,0,0-.34.49.43.43,0,0,0,.08.27.47.47,0,0,0-.38.46.49.49,0,0,0,.49.49.48.48,0,0,0,.48-.49.46.46,0,0,0-.06-.23.51.51,0,0,0,.42-.5.6.6,0,0,0-.05-.24.58.58,0,0,0,.43-.56.69.69,0,0,0-.05-.24.63.63,0,0,0,.4-.58.51.51,0,0,0-.06-.25.58.58,0,0,0,.23-.18.56.56,0,0,0-.09.31.61.61,0,0,0,.11.35.55.55,0,0,0-.36.52.52.52,0,0,0,.14.36.48.48,0,0,0-.25.81.43.43,0,0,0-.42.44.45.45,0,1,0,.89,0,.44.44,0,0,0-.11-.29.49.49,0,0,0,.48-.48.51.51,0,0,0-.1-.3.54.54,0,0,0,.48-.54.51.51,0,0,0-.09-.3.6.6,0,0,0,.43-.57.54.54,0,0,0-.09-.31.64.64,0,0,0,.41-.59.74.74,0,0,0-.09-.33.67.67,0,0,0,.38-.6.68.68,0,0,0-.1-.35l.13-.1a.85.85,0,0,0,0,.23.63.63,0,0,0,.16.42.6.6,0,0,0-.22,1,.56.56,0,0,0-.23.94.52.52,0,0,0-.41.51.54.54,0,0,0,.23.44h0a.45.45,0,0,0-.45.45.45.45,0,1,0,.9,0,.45.45,0,0,0-.18-.36h0a.52.52,0,0,0,.52-.53.48.48,0,0,0-.14-.35.57.57,0,0,0,.48-.56.59.59,0,0,0-.13-.37.61.61,0,0,0,.31-1,.65.65,0,0,0,.42-.6.69.69,0,0,0-.15-.41.64.64,0,0,0,.4-.6.72.72,0,0,0-.15-.43.68.68,0,0,0,.37-.61v0a.78.78,0,0,0,.16.2A.64.64,0,0,0,133,43a.66.66,0,0,0,.22.48.61.61,0,0,0-.41.58.58.58,0,0,0,.22.46.6.6,0,0,0-.44.57.56.56,0,0,0,.23.45.56.56,0,0,0-.46.54.54.54,0,0,0,.27.47h0a.5.5,0,1,0,.49.49.51.51,0,0,0-.24-.42h0a.55.55,0,0,0,.54-.55.53.53,0,0,0-.21-.42.58.58,0,0,0,.52-.57.59.59,0,0,0-.2-.44.6.6,0,0,0,.47-.59.59.59,0,0,0-.21-.46.62.62,0,0,0,.45-.6.61.61,0,0,0-.21-.47.66.66,0,0,0,.42-.62.64.64,0,0,0-.22-.49.67.67,0,0,0,.4-.62.25.25,0,0,0,0-.08.84.84,0,0,0,.25.28.62.62,0,0,0-.43.59.63.63,0,0,0,.31.55.6.6,0,0,0-.47.59.61.61,0,0,0,.32.53.58.58,0,0,0-.5.58.6.6,0,0,0,.33.52.55.55,0,1,0,.58.55.56.56,0,0,0-.31-.49.58.58,0,0,0,.57-.58.59.59,0,0,0-.29-.51.62.62,0,0,0,.53-.6.61.61,0,0,0-.3-.52.63.63,0,0,0,.49-.62.62.62,0,0,0-.29-.53.65.65,0,0,0,.46-.62.66.66,0,0,0-.3-.56.66.66,0,0,0,.43-.62s0-.09,0-.14a.7.7,0,0,0,.36.34.62.62,0,0,0-.49.61.64.64,0,0,0,.44.6.61.61,0,0,0,0,1.2h-.05a.59.59,0,1,0,.1,0h.06a.61.61,0,0,0,.61-.61.59.59,0,0,0-.43-.57.63.63,0,0,0,.18-1.22.64.64,0,0,0,.51-.63.65.65,0,0,0-.39-.6.67.67,0,0,0,.46-.64A.65.65,0,0,0,137,37a.7.7,0,0,0,.43-.64.36.36,0,0,0,0-.11.66.66,0,0,0,.42.27.64.64,0,0,0-.51.63.64.64,0,1,0,1.28,0,.64.64,0,0,0-.51-.63.67.67,0,0,0,.53-.65.68.68,0,0,0-.48-.64.68.68,0,0,0,.46-.64.88.88,0,0,0,0-.17.63.63,0,0,0,.54.3.66.66,0,0,0,.66-.66.65.65,0,0,0-.62-.65.68.68,0,0,0,.54-.66.59.59,0,0,0,0-.23.65.65,0,0,0,1.21-.32.65.65,0,0,0-1.3,0,.78.78,0,0,0,0,.22.68.68,0,0,0-.47-.34.7.7,0,0,0,.44-.64.77.77,0,0,0,0-.15.64.64,0,0,0,.51.24.67.67,0,0,0,0-1.34.68.68,0,0,0,.48-.65,1.11,1.11,0,0,0,0-.19.64.64,0,0,0,.51.24.66.66,0,1,0-.66-.66,1.1,1.1,0,0,0,0,.18.62.62,0,0,0-.44-.25.73.73,0,0,0,.38-.63.68.68,0,0,0,0-.14.73.73,0,0,0,.47.19.69.69,0,0,0,.68-.68.7.7,0,0,0-.05-.25.66.66,0,0,0,.53.27.65.65,0,0,0,.65-.65.66.66,0,0,0-.65-.66.67.67,0,0,0-.66.66.64.64,0,0,0,.05.23.7.7,0,0,0-.55-.28.71.71,0,0,0,.41-.64.47.47,0,0,0,0-.17.67.67,0,0,0,.47.19.68.68,0,0,0,.68-.67.65.65,0,0,0-.08-.31.66.66,0,0,0,.55.3.65.65,0,1,0-.65-.65.54.54,0,0,0,.07.29.68.68,0,0,0-.57-.3h-.1a.69.69,0,0,0,.45-.65.76.76,0,0,0,0-.21.66.66,0,1,0-.2-.47.69.69,0,0,0,0,.2.68.68,0,0,0-.47-.21.69.69,0,0,0,.31-.59,1,1,0,0,0,0-.17.68.68,0,0,0,1.11-.54.6.6,0,0,0-.05-.24.66.66,0,0,0,1.13-.47.66.66,0,0,0-1.32,0,.59.59,0,0,0,.05.23.71.71,0,0,0-.5-.21h0a.68.68,0,0,0,.32-.59,1.23,1.23,0,0,0,0-.19.64.64,0,0,0,.41.14.68.68,0,0,0,.68-.68.72.72,0,0,0-.06-.29.65.65,0,1,0,.47-1.1.65.65,0,0,0-.65.65.6.6,0,0,0,.06.27.7.7,0,0,0-.5-.22h-.09a.7.7,0,0,0,.32-.59.78.78,0,0,0,0-.22.66.66,0,0,0,.41.14.67.67,0,0,0,.58-1,.64.64,0,1,0-.16-.42.6.6,0,0,0,.1.32.68.68,0,0,0-.52-.24l-.16,0a.72.72,0,0,0,.29-.84.68.68,0,0,0,.4.13.68.68,0,1,0,0-1.35l-.15,0a.69.69,0,0,0,.29-.57.62.62,0,0,0-.05-.27.65.65,0,0,0,.39.13.67.67,0,1,0-.67-.67.74.74,0,0,0,.05.25.68.68,0,0,0-.42-.14.7.7,0,0,0-.7.7.57.57,0,0,0,0,.18.79.79,0,0,0-.37-.1.73.73,0,0,0-.73.73.59.59,0,0,0,0,.13.75.75,0,0,0-1.09.67s0,.06,0,.08a.94.94,0,0,0-.3-.06.78.78,0,0,0-.78.78v.05a.59.59,0,0,0-.27-.05.79.79,0,0,0-.8.79v0a.74.74,0,0,0-.25-.05.78.78,0,0,0-.5.18l-4.21,3.41c-12.72,10.29-11.92,18-16.15,18a2.89,2.89,0,0,1-2.91-2.9c0-5.82,14.57-17,14.57-25.93A6.93,6.93,0,0,0,121.87,4a14.88,14.88,0,0,0-10.68,4.52,7.46,7.46,0,0,0-2.36,4.69c0,.82.33,1.36.92,1.36,2,0,3.71-2.63,3.91-2.93a.19.19,0,0,1,.17-.09.2.2,0,0,1,.2.2c0,.35-1.61,1.67-1.61,3.71a2.06,2.06,0,0,0,.85,1.66c3.18-1.21,4.16-3.62,5.07-5.77C119,9.8,119.91,8,121.87,8a2.88,2.88,0,0,1,2.88,2.88C124.75,20.44,106,31,106,42.35c0,3.91,2.12,7,3.22,7m29-18.66a.69.69,0,0,0,.26.12.69.69,0,0,0-.35.6v.07a.55.55,0,0,0-.22-.14.73.73,0,0,0,.31-.6V30.7M138,32.63a.73.73,0,0,0,.35-.62v-.08a.64.64,0,0,0,.35.17.67.67,0,0,0-.42.63.34.34,0,0,0,0,.1.66.66,0,0,0-.29-.2m.9-5.09a1,1,0,0,0,.26.1.68.68,0,0,0-.3.57v.07a.59.59,0,0,0-.22-.12.75.75,0,0,0,.26-.57v-.05m.82-2a.68.68,0,0,0,.31.11.71.71,0,0,0-.3.57s0,.07,0,.1a.87.87,0,0,0-.27-.14.73.73,0,0,0,.25-.55v-.09m-.24,3.33a.68.68,0,0,0-.37.61s0,.06,0,.09a1,1,0,0,0-.28-.17.72.72,0,0,0,.3-.59v-.08a.74.74,0,0,0,.34.14M138.43,34a.34.34,0,0,0,0,.15.75.75,0,0,0-.36-.27.72.72,0,0,0,.4-.63.37.37,0,0,0,0-.11.67.67,0,0,0,.47.22.65.65,0,0,0-.52.64m.93-3.2c0,.05,0,.09,0,.13a.65.65,0,0,0-.36-.22.71.71,0,0,0,.36-.62V30a.68.68,0,0,0,.46.18.67.67,0,0,0-.47.64m.71-3.26s0,.08,0,.12a.69.69,0,0,0-.35-.18.72.72,0,0,0,.31-.59.49.49,0,0,0,0-.12.66.66,0,0,0,.43.15h0a.69.69,0,0,0-.39.62m.43-4a.7.7,0,0,0,.37.11.71.71,0,0,0-.3.57.53.53,0,0,0,0,.13.63.63,0,0,0-.32-.15.73.73,0,0,0,.25-.55s0-.08,0-.11m.87,1.37a.67.67,0,0,0-.44.63.88.88,0,0,0,0,.16.69.69,0,0,0-.41-.2.7.7,0,0,0,.31-.59c0-.05,0-.09,0-.14a.68.68,0,0,0,.42.14h.11m.61-4.69a1.1,1.1,0,0,0,0,.18.71.71,0,0,0-.4-.16.72.72,0,0,0,.23-.53.86.86,0,0,0,0-.16.64.64,0,0,0,.36.11h.1a.68.68,0,0,0-.3.57m.94-4.49a.64.64,0,0,0,0-.2.67.67,0,0,0,.34.09l.17,0a.67.67,0,0,0-.28.55.62.62,0,0,0,0,.23.64.64,0,0,0-.42-.15h0a.8.8,0,0,0,.21-.51m-.18,1.91a.45.45,0,0,0,.16,0,.71.71,0,0,0-.32.58.64.64,0,0,0,0,.2.72.72,0,0,0-.43-.15h0a.7.7,0,0,0,.23-.52,1.1,1.1,0,0,0,0-.18.69.69,0,0,0,.36.1m-.86-1.26a.67.67,0,0,0,.31.07h0a.66.66,0,0,0-.2.49.88.88,0,0,0,0,.16.82.82,0,0,0-.31-.11.73.73,0,0,0,.16-.46.77.77,0,0,0,0-.15m-.53,2a.71.71,0,0,0,.32.07h0a.72.72,0,0,0-.21.51.32.32,0,0,0,0,.14.71.71,0,0,0-.31-.1.79.79,0,0,0,.17-.49.57.57,0,0,0,0-.13m-.15,3.32a.66.66,0,0,0,0-.14.67.67,0,0,0,.37.11h.05a.67.67,0,0,0-.31.57.77.77,0,0,0,0,.15.77.77,0,0,0-.36-.15.72.72,0,0,0,.24-.54m-.33-4.46a.87.87,0,0,0,.22.05.72.72,0,0,0-.14.44.41.41,0,0,0,0,.11.81.81,0,0,0-.22-.07.71.71,0,0,0,.13-.43v-.1m-.09,3.23a.34.34,0,0,0,0-.1,1.09,1.09,0,0,0,.31.08.69.69,0,0,0-.22.51.49.49,0,0,0,0,.12,1,1,0,0,0-.28-.11.72.72,0,0,0,.19-.5m-.46-1.27a.79.79,0,0,0,.22.06.71.71,0,0,0-.16.46v.09a.68.68,0,0,0-.2-.07.78.78,0,0,0,.15-.45.28.28,0,0,0,0-.09m-.19,3.15a.77.77,0,0,0,.27.08.7.7,0,0,0-.23.52.28.28,0,0,0,0,.09,1.09,1.09,0,0,0-.25-.1.71.71,0,0,0,.2-.51v-.08m-.28-4.27.13,0a.73.73,0,0,0-.12.41v.07a.42.42,0,0,0-.12,0,.81.81,0,0,0,.11-.41v-.05m-.13,3.09.19.05a.74.74,0,0,0-.17.48v.06a.49.49,0,0,0-.17-.06.76.76,0,0,0,.16-.47.13.13,0,0,0,0-.06m-.07,3.22a.72.72,0,0,0-.23.53v.07a.93.93,0,0,0-.2-.1.78.78,0,0,0,.2-.52v-.06l.23.08m-.37-4.37.12,0a.77.77,0,0,0-.13.42v0l-.1,0a.73.73,0,0,0,.12-.41.09.09,0,0,0,0-.05m-.21,3.14v0l.15.05a.71.71,0,0,0-.19.49v.05a.31.31,0,0,0-.13-.06.83.83,0,0,0,.17-.49m-.4-1.17v0l.09,0a.73.73,0,0,0-.15.44v0l-.07,0a.76.76,0,0,0,.13-.44m0,4.31v0a.75.75,0,0,0,.18.07.71.71,0,0,0-.25.54s0,0,0,0l-.16-.08a.72.72,0,0,0,.22-.53m-.32-1.2v0l.12,0a.73.73,0,0,0-.2.5s0,0,0,0l-.1,0a.79.79,0,0,0,.17-.49m-.51,3.12v0l.13,0a.79.79,0,0,0-.17.2.59.59,0,0,0,0-.23m.22,1.22v0l.2.09a.68.68,0,0,0-.3.57v0l-.16-.1a.73.73,0,0,0,.26-.57m-.79,6.35V36a.64.64,0,0,0-.26-.23.71.71,0,0,0,.38-.62s0-.05,0-.08a.63.63,0,0,0,.33.2.66.66,0,0,0-.44.63m.49-7.22a.78.78,0,0,0,0,.22v0l-.1-.05a.85.85,0,0,0,.14-.19M137.58,34a.68.68,0,0,0-.38.62v.06a.87.87,0,0,0-.21-.17.71.71,0,0,0,.34-.61v0a.68.68,0,0,0,.25.14m-.49-.66v0a.42.42,0,0,0-.15-.11.74.74,0,0,0,.3-.6v0a.85.85,0,0,0,.19.1.7.7,0,0,0-.34.6m0-1.9v0l.13.07a.61.61,0,0,0-.16.16.76.76,0,0,0,0-.21m-.13.43a.63.63,0,0,0,0,.19h0l-.1-.06a.86.86,0,0,0,.13-.14m-.81,2.61a.67.67,0,0,0,.11.07.86.86,0,0,0-.14.13.64.64,0,0,0,0-.2m0,1.2h0a.66.66,0,0,0,.17.12.61.61,0,0,0-.25.23.81.81,0,0,0,.08-.34m-.21-.71a.86.86,0,0,0,0,.17l-.08-.07.11-.1m.09,1.11a.78.78,0,0,0-.07.31v0a.81.81,0,0,0-.14-.12.6.6,0,0,0,.21-.21m.11.81v0a.79.79,0,0,0,.23.16.67.67,0,0,0-.41.61v.06a.62.62,0,0,0-.18-.18.73.73,0,0,0,.36-.62m-.05,1.2V38a.7.7,0,0,0,.28.23.66.66,0,0,0-.44.62.59.59,0,0,0,0,.13.71.71,0,0,0-.25-.29.69.69,0,0,0,.39-.62M135,37.37l.09.07-.11.08a.77.77,0,0,0,0-.15m-.07,1.14a.81.81,0,0,0,.14.12.52.52,0,0,0-.19.14.75.75,0,0,0,.05-.26m-.16-.63a.59.59,0,0,0,0,.13l-.07-.06.09-.07m0,1.1a.7.7,0,0,0-.05.25h0a.69.69,0,0,0-.11-.13.51.51,0,0,0,.16-.13m.08.66v0a.55.55,0,0,0,.19.18.66.66,0,0,0-.4.61v.06a.78.78,0,0,0-.16-.21.7.7,0,0,0,.37-.62m-1.37,1.53a.58.58,0,0,0,.1.12.48.48,0,0,0-.15.11,1,1,0,0,0,.05-.23m-.23.49a.85.85,0,0,0,0,.22v0a.42.42,0,0,0-.09-.14l.13-.1m-1.45,1.88a.45.45,0,0,0,.1.13l-.15.1a.59.59,0,0,0,.05-.23M129.9,45.3l.07-.06a.78.78,0,0,0,0,.16.6.6,0,0,0,.12.36.5.5,0,0,0-.22.16.65.65,0,0,0,.1-.36.75.75,0,0,0,0-.26m-1.58,1.05.06,0a.41.41,0,0,0,0,.11.61.61,0,0,0,.08.3.43.43,0,0,0-.17.12.78.78,0,0,0,.07-.3.58.58,0,0,0,0-.19m-1.26.44h0Z" transform="translate(0 0)"/><path d="M149.17,13.62a.49.49,0,1,0,.49-.49.49.49,0,0,0-.49.49" transform="translate(0 0)"/><path d="M153.12,9.28a.38.38,0,1,0-.37-.38.38.38,0,0,0,.37.38" transform="translate(0 0)"/><path d="M158.05,32.35a.11.11,0,1,0,0-.22.11.11,0,0,0,0,.22" transform="translate(0 0)"/><path d="M158.54,19.94a.16.16,0,0,0,.15-.16.15.15,0,0,0-.15-.15.16.16,0,0,0-.16.15.16.16,0,0,0,.16.16" transform="translate(0 0)"/><path d="M156.1,6.56a.27.27,0,0,0,.27-.27.27.27,0,0,0-.54,0,.27.27,0,0,0,.27.27" transform="translate(0 0)"/><path d="M158.59,26.16a.13.13,0,1,0,0-.26.13.13,0,0,0,0,.26" transform="translate(0 0)"/><path d="M158.55,15.6a.16.16,0,1,0,0-.32.16.16,0,0,0,0,.32" transform="translate(0 0)"/><path d="M158.4,24.13a.16.16,0,0,0-.16-.15.15.15,0,0,0-.15.15.16.16,0,0,0,.15.16.16.16,0,0,0,.16-.16" transform="translate(0 0)"/><path d="M157.93,13.49a.18.18,0,0,0-.18.19.19.19,0,1,0,.37,0,.18.18,0,0,0-.19-.19" transform="translate(0 0)"/><path d="M157.89,30.45a.12.12,0,1,0,0-.24.12.12,0,1,0,0,.24" transform="translate(0 0)"/><path d="M157.84,18a.18.18,0,1,0,.18-.18.18.18,0,0,0-.18.18" transform="translate(0 0)"/><path d="M157.67,22.27a.18.18,0,0,0,.17.17.17.17,0,0,0,.17-.17.17.17,0,0,0-.17-.18.18.18,0,0,0-.17.18" transform="translate(0 0)"/><path d="M158.15,11.16a.17.17,0,0,0,.16.17.17.17,0,1,0,0-.34.17.17,0,0,0-.16.17" transform="translate(0 0)"/><path d="M156.34,10.32a.25.25,0,0,0,.49,0,.25.25,0,1,0-.49,0" transform="translate(0 0)"/><path d="M156.87,8.1a.24.24,0,1,0-.24-.24.24.24,0,0,0,.24.24" transform="translate(0 0)"/><path d="M158.12,2.19a.19.19,0,0,0,.19-.19.2.2,0,0,0-.19-.19.19.19,0,0,0-.19.19.18.18,0,0,0,.19.19" transform="translate(0 0)"/><path d="M156.27,4.15a.26.26,0,0,0,.27-.26.27.27,0,1,0-.53,0,.26.26,0,0,0,.26.26" transform="translate(0 0)"/><path d="M157.06,5.63a.23.23,0,0,0,0-.46.23.23,0,1,0,0,.46" transform="translate(0 0)"/><path d="M157.2,3.19a.23.23,0,0,0,.23-.23.23.23,0,0,0-.23-.23A.23.23,0,0,0,157,3a.24.24,0,0,0,.23.23" transform="translate(0 0)"/><path d="M158,4.68a.2.2,0,1,0,0-.39.2.2,0,0,0-.19.19.2.2,0,0,0,.19.2" transform="translate(0 0)"/><path d="M157.85,7.18a.19.19,0,0,0,.2-.19.2.2,0,1,0-.39,0,.19.19,0,0,0,.19.19" transform="translate(0 0)"/><path d="M157.61,9.69a.21.21,0,1,0,0-.42.21.21,0,0,0,0,.42" transform="translate(0 0)"/><path d="M145.31,14a.64.64,0,1,0,0-1.28.64.64,0,1,0,0,1.28" transform="translate(0 0)"/><path d="M137.29,49a.19.19,0,0,0,.18-.19.18.18,0,0,0-.18-.18.18.18,0,0,0-.19.18.19.19,0,0,0,.19.19" transform="translate(0 0)"/><path d="M136.81,43.35a.54.54,0,1,0,.54-.53.54.54,0,0,0-.54.53" transform="translate(0 0)"/><path d="M137.85,47.8a.24.24,0,1,0-.24.24.24.24,0,0,0,.24-.24" transform="translate(0 0)"/><path d="M138.26,46.69a.36.36,0,1,0-.35.35.36.36,0,0,0,.35-.35" transform="translate(0 0)"/><path d="M138.6,45.53a.42.42,0,1,0-.84,0,.42.42,0,1,0,.84,0" transform="translate(0 0)"/><path d="M139.07,39.89a.58.58,0,0,0,.58-.58.58.58,0,1,0-1.16,0,.58.58,0,0,0,.58.58" transform="translate(0 0)"/><path d="M137.8,40.28a.61.61,0,1,0-.6-.61.61.61,0,0,0,.6.61" transform="translate(0 0)"/><path d="M137.88,37.78a.63.63,0,1,0,.63.63.63.63,0,0,0-.63-.63" transform="translate(0 0)"/><path d="M138.61,49a.15.15,0,0,0,.14-.14.15.15,0,1,0-.14.14" transform="translate(0 0)"/><path d="M137.53,42.71a.56.56,0,1,0,0-1.12.56.56,0,1,0,0,1.12" transform="translate(0 0)"/><path d="M137.69,41.51a.59.59,0,1,0-.59-.59.58.58,0,0,0,.59.59" transform="translate(0 0)"/><path d="M140.25,47.91a.17.17,0,0,0,0-.34.17.17,0,1,0,0,.34" transform="translate(0 0)"/><path d="M141.16,45.26a.36.36,0,1,0-.36.36.36.36,0,0,0,.36-.36" transform="translate(0 0)"/><path d="M142.08,46.42a.23.23,0,0,0-.23-.23.23.23,0,0,0-.23.23.24.24,0,0,0,.23.24.23.23,0,0,0,.23-.24" transform="translate(0 0)"/><path d="M141.44,44a.41.41,0,1,0-.4.4.4.4,0,0,0,.4-.4" transform="translate(0 0)"/><path d="M141.56,47.87a.15.15,0,0,0,.15-.15.15.15,0,0,0-.3,0,.15.15,0,0,0,.15.15" transform="translate(0 0)"/><path d="M139.92,49a.12.12,0,0,0,.12-.12.12.12,0,0,0-.12-.12.13.13,0,0,0-.12.12.12.12,0,0,0,.12.12" transform="translate(0 0)"/><path d="M139.73,43.73a.44.44,0,0,0-.44.43.44.44,0,0,0,.44.44.44.44,0,0,0,.44-.44.43.43,0,0,0-.44-.43" transform="translate(0 0)"/><path d="M139.88,45.4a.38.38,0,0,0-.39-.39.39.39,0,0,0-.39.39.4.4,0,0,0,.39.39.39.39,0,0,0,.39-.39" transform="translate(0 0)"/><path d="M139.53,46.6a.31.31,0,0,0-.31-.31.31.31,0,1,0,0,.62.31.31,0,0,0,.31-.31" transform="translate(0 0)"/><path d="M138.93,48a.2.2,0,0,0,.19-.2.19.19,0,0,0-.19-.19.19.19,0,0,0-.2.19.2.2,0,0,0,.2.2" transform="translate(0 0)"/><path d="M140.81,46.51a.27.27,0,0,0-.27-.27.28.28,0,0,0-.28.27.29.29,0,0,0,.28.28.28.28,0,0,0,.27-.28" transform="translate(0 0)"/><path d="M144.2,15.43a.65.65,0,1,0,.65-.65.65.65,0,0,0-.65.65" transform="translate(0 0)"/><path d="M143.89,24.91a.61.61,0,0,0,.61-.62.61.61,0,0,0-.61-.61.61.61,0,0,0-.62.61.62.62,0,0,0,.62.62" transform="translate(0 0)"/><path d="M145.41,17.35a.61.61,0,0,0,.61-.62.61.61,0,0,0-.61-.61.61.61,0,0,0-.62.61.62.62,0,0,0,.62.62" transform="translate(0 0)"/><path d="M142.87,22.93a.64.64,0,1,0,.64-.64.64.64,0,0,0-.64.64" transform="translate(0 0)"/><path d="M143.58,20.88a.63.63,0,1,0,.63-.63.63.63,0,0,0-.63.63" transform="translate(0 0)"/><path d="M144.22,18.81a.63.63,0,1,0,.62-.62.63.63,0,0,0-.62.62" transform="translate(0 0)"/><path d="M139.14,38.6a.6.6,0,0,0,0-1.2.6.6,0,1,0,0,1.2" transform="translate(0 0)"/><path d="M148,12.48a.55.55,0,1,0,0,1.1.55.55,0,0,0,0-1.1" transform="translate(0 0)"/><path d="M149,11.7a.52.52,0,1,0,.52.52.52.52,0,0,0-.52-.52" transform="translate(0 0)"/><path d="M146.94,13.25a.59.59,0,1,0,.59.59.59.59,0,0,0-.59-.59" transform="translate(0 0)"/><path d="M145.9,14a.61.61,0,0,0-.62.61.62.62,0,0,0,.62.62.61.61,0,0,0,.61-.62.61.61,0,0,0-.61-.61" transform="translate(0 0)"/><path d="M150.06,29.93a.4.4,0,0,0,.39-.39.39.39,0,0,0-.39-.39.38.38,0,0,0-.39.39.39.39,0,0,0,.39.39" transform="translate(0 0)"/><path d="M140.29,32.89a.64.64,0,1,0,.64.63.63.63,0,0,0-.64-.63" transform="translate(0 0)"/><path d="M142.44,26.32a.63.63,0,0,0,.63.62.63.63,0,1,0-.63-.62" transform="translate(0 0)"/><path d="M139.16,37.3a.62.62,0,0,0,.62-.62.62.62,0,0,0-1.24,0,.62.62,0,0,0,.62.62" transform="translate(0 0)"/><path d="M140.37,35.49a.61.61,0,1,0,0-1.22.61.61,0,1,0,0,1.22" transform="translate(0 0)"/><path d="M141.54,28.31a.64.64,0,1,0,.64-.64.64.64,0,0,0-.64.64" transform="translate(0 0)"/><path d="M140.57,30.26a.64.64,0,1,0,.64-.64.64.64,0,0,0-.64.64" transform="translate(0 0)"/><path d="M141.38,32.26a.63.63,0,1,0-.62-.63.63.63,0,0,0,.62.63" transform="translate(0 0)"/><path d="M141.51,33.62a.61.61,0,1,0-.6-.6.6.6,0,0,0,.6.6" transform="translate(0 0)"/><path d="M139.14,34.72a.64.64,0,1,0,.64.64.64.64,0,0,0-.64-.64" transform="translate(0 0)"/><path d="M148,41.53a.27.27,0,1,0-.27.28.28.28,0,0,0,.27-.28" transform="translate(0 0)"/><path d="M147.79,43.07a.22.22,0,0,0-.22-.22.23.23,0,1,0,.22.22" transform="translate(0 0)"/><path d="M148.16,40a.31.31,0,1,0-.31.31.31.31,0,0,0,.31-.31" transform="translate(0 0)"/><path d="M148.27,38.41a.34.34,0,0,0-.34-.34.34.34,0,0,0,0,.68.34.34,0,0,0,.34-.34" transform="translate(0 0)"/><path d="M148,36.46a.37.37,0,0,0,0,.74.37.37,0,0,0,0-.74" transform="translate(0 0)"/><path d="M147.89,29a.48.48,0,1,0-1,0,.48.48,0,1,0,1,0" transform="translate(0 0)"/><path d="M146.68,35.2a.43.43,0,0,0-.43.43.43.43,0,0,0,.86,0,.43.43,0,0,0-.43-.43" transform="translate(0 0)"/><path d="M147.94,34.85a.4.4,0,0,0,0,.79.4.4,0,1,0,0-.79" transform="translate(0 0)"/><path d="M147.61,31a.46.46,0,1,0,0-.92.46.46,0,0,0,0,.92" transform="translate(0 0)"/><path d="M147.36,44.75a.17.17,0,0,0,.16-.17.16.16,0,0,0-.16-.16.17.17,0,1,0,0,.33" transform="translate(0 0)"/><path d="M150.24,27.91a.42.42,0,0,0-.41-.41.41.41,0,0,0-.41.41.41.41,0,0,0,.41.41.41.41,0,0,0,.41-.41" transform="translate(0 0)"/><path d="M149.52,38.11a.31.31,0,0,0-.31-.3.31.31,0,0,0,0,.61.31.31,0,0,0,.31-.31" transform="translate(0 0)"/><path d="M149.42,39.72a.27.27,0,0,0-.27-.27.28.28,0,1,0,0,.55.27.27,0,0,0,.27-.28" transform="translate(0 0)"/><path d="M149.23,36.16a.34.34,0,1,0,.34.34.34.34,0,0,0-.34-.34" transform="translate(0 0)"/><path d="M146.68,36.77a.41.41,0,0,0-.4.4.42.42,0,0,0,.4.41.41.41,0,0,0,.41-.41.4.4,0,0,0-.41-.4" transform="translate(0 0)"/><path d="M149.06,28.44a.45.45,0,1,0-.44.44.44.44,0,0,0,.44-.44" transform="translate(0 0)"/><path d="M148.83,30.45a.43.43,0,1,0-.42-.42.42.42,0,0,0,.42.42" transform="translate(0 0)"/><path d="M148.67,44.56a.09.09,0,0,0,.1-.1.1.1,0,0,0-.1-.11.11.11,0,0,0-.11.11.1.1,0,0,0,.11.1" transform="translate(0 0)"/><path d="M149.06,42.9a.19.19,0,0,0-.38,0,.19.19,0,0,0,.38,0" transform="translate(0 0)"/><path d="M149.26,41.32a.23.23,0,0,0-.23-.23.23.23,0,0,0-.24.23.24.24,0,0,0,.24.24.23.23,0,0,0,.23-.24" transform="translate(0 0)"/><path d="M146.74,41.75a.31.31,0,1,0-.31.31.31.31,0,0,0,.31-.31" transform="translate(0 0)"/><path d="M144,43.6a.34.34,0,0,0-.67,0,.34.34,0,1,0,.67,0" transform="translate(0 0)"/><path d="M143.7,45a.28.28,0,1,0-.27.28.27.27,0,0,0,.27-.28" transform="translate(0 0)"/><path d="M143.17,46.53a.2.2,0,0,0,.19-.2.2.2,0,0,0-.19-.19.2.2,0,1,0,0,.39" transform="translate(0 0)"/><path d="M144.21,42.2a.38.38,0,1,0-.38.38.38.38,0,0,0,.38-.38" transform="translate(0 0)"/><path d="M144.39,40.77a.42.42,0,1,0-.83,0,.42.42,0,0,0,.83,0" transform="translate(0 0)"/><path d="M142.71,43.79a.37.37,0,0,0-.37-.37.38.38,0,0,0-.37.37.37.37,0,0,0,.37.37.36.36,0,0,0,.37-.37" transform="translate(0 0)"/><path d="M144.48,46.39a.15.15,0,0,0,.15-.15.15.15,0,1,0-.3,0,.15.15,0,0,0,.15.15" transform="translate(0 0)"/><path d="M147,38.71a.38.38,0,1,0-.38.38.38.38,0,0,0,.38-.38" transform="translate(0 0)"/><path d="M142.88,47.81a.1.1,0,0,0,.11-.1.11.11,0,1,0-.22,0,.1.1,0,0,0,.11.1" transform="translate(0 0)"/><path d="M143,42.43a.42.42,0,1,0-.41.41.41.41,0,0,0,.41-.41" transform="translate(0 0)"/><path d="M145.8,46.26a.1.1,0,0,0,.1-.1.11.11,0,0,0-.1-.11.11.11,0,0,0-.11.11.1.1,0,0,0,.11.1" transform="translate(0 0)"/><path d="M146.52,43.25a.27.27,0,0,0-.26-.27.27.27,0,0,0,0,.53.26.26,0,0,0,.26-.26" transform="translate(0 0)"/><path d="M142.43,45.12a.32.32,0,1,0-.32.32.31.31,0,0,0,.32-.32" transform="translate(0 0)"/><path d="M146.9,40.24a.35.35,0,0,0-.34-.35.35.35,0,0,0-.35.35.35.35,0,0,0,.35.34.34.34,0,0,0,.34-.34" transform="translate(0 0)"/><path d="M146.05,44.92a.21.21,0,0,0,.2-.21.19.19,0,0,0-.2-.19.19.19,0,0,0-.2.19.2.2,0,0,0,.2.21" transform="translate(0 0)"/><path d="M145,44.85a.23.23,0,0,0-.23-.24.24.24,0,0,0,0,.48.23.23,0,0,0,.23-.24" transform="translate(0 0)"/><path d="M145.48,42a.35.35,0,0,0-.35-.34.34.34,0,0,0-.34.34.35.35,0,0,0,.34.35.35.35,0,0,0,.35-.35" transform="translate(0 0)"/><path d="M145.25,43.42a.3.3,0,1,0-.59,0,.3.3,0,1,0,.59,0" transform="translate(0 0)"/><path d="M145.65,40.5a.38.38,0,1,0-.38.38.38.38,0,0,0,.38-.38" transform="translate(0 0)"/><path d="M145.77,39a.41.41,0,0,0-.41-.41A.42.42,0,0,0,145,39a.41.41,0,0,0,.41.41.41.41,0,0,0,.41-.41" transform="translate(0 0)"/><path d="M222.42,98.45V69.74c0-2.26,1.77-2.26,2.6-2.26v-.75H214.81v.75c.82,0,2.6,0,2.6,2.26V98.45c0,2.25-1.82,2.25-2.6,2.25v.76H225v-.76c-.83,0-2.6,0-2.6-2.25" transform="translate(0 0)"/><path d="M187.6,66.73h-9.11v.75c4.41,0,3.25,2.9,2.7,4.62-1.22,3.79-8,24.49-8,24.49h-.1l-8.46-25.24A9.72,9.72,0,0,1,164,69c0-1,.65-1.56,2.61-1.56v-.75H156.19v.75c2.29,0,2.53,1.24,3,2.42l11.18,31.88h3.2s9.5-29,10.3-31.43c.75-2.31,1.89-2.87,3.74-2.87Z" transform="translate(0 0)"/><path d="M199.86,81.14c-6.28-1.35-8.78-2.11-8.78-6s3.32-7,8.83-7a8.65,8.65,0,0,1,8.72,7.25h.78l-.2-7.47c-2.18-1.19-6.34-1.78-8.48-1.78-8.22,0-13.53,4.63-13.53,10,0,6.55,4.75,8.22,13.53,10,3.52.75,6.49,1.78,6.49,6.09,0,5.57-4.76,7.71-8.48,7.71-5.33,0-9-3.69-10.24-8.85h-.8l.32,8.33a17.61,17.61,0,0,0,9.29,2.52c9.5,0,13.78-5,13.78-11,0-7.15-4.84-8.49-11.23-9.83" transform="translate(0 0)"/><path d="M241.57,98.61,227.32,82.38s9.94-10.86,11-12c1.53-1.66,2.82-2.87,4.93-2.87v-.75h-9.87v.75c4.24,0,2.94,2.06,2.2,2.87L223,84.09l15.11,17.37H245v-.76c-1.53,0-2.34-.8-3.41-2.09" transform="translate(0 0)"/><path d="M258.1,67.48v-.75H247.89v.75c.83,0,2.61,0,2.61,2.26v28.7c0,2.26-1.83,2.26-2.61,2.26v.76H258.1v-.76c-.82,0-2.6,0-2.6-2.25V69.74c0-2.26,1.78-2.26,2.6-2.26" transform="translate(0 0)"/><path d="M69.07,67.48v-.75h-9.4v.75c3.41,0,4.21,1.34,3,5.54C62.17,74.67,55.8,96.6,55.8,96.6h-.1s-6.78-22.46-7.31-24.28c-.7-2.41-1.88-4.84,2.3-4.84v-.75H38.74v.75c1.93,0,3.32.59,4,2.42.41,1.13,3,8.46,3,9.43S42.55,90.61,41,96.15h-.1S34,74.2,33.28,71.79a10.36,10.36,0,0,1-.72-2.73c0-1,.72-1.58,2.41-1.58v-.75H24.71v.75c2.31,0,2.9,1.51,3.51,3.44l9.87,30.86h3.42l5.35-19.73H47l5.83,19.73h3.59l8.86-30.59c.67-2.36,2.21-3.71,3.83-3.71" transform="translate(0 0)"/><path d="M12.67,81.14c-6.29-1.35-8.79-2.11-8.79-6s3.32-7,8.84-7a8.64,8.64,0,0,1,8.71,7.25h.79L22,68c-2.17-1.19-6.33-1.78-8.48-1.78C5.31,66.19,0,70.82,0,76.14c0,6.55,4.75,8.22,13.53,10C17.06,86.94,20,88,20,92.28c0,5.57-4.75,7.71-8.48,7.71-5.33,0-9-3.69-10.23-8.85H.51l.31,8.33A17.61,17.61,0,0,0,10.11,102c9.5,0,13.79-5,13.79-11,0-7.14-4.85-8.49-11.23-9.83" transform="translate(0 0)"/><path d="M120.67,96.84l-9.21-12.48c5.55-.27,9.68-4,9.68-9.46,0-4.46-3.9-8.17-11.24-8.17H97.14v.75c1.19,0,2.6.27,2.6,2.26V98.45h0c0,2.24-1.82,2.24-2.6,2.24v.76h10.21v-.76c-.83,0-2.6,0-2.6-2.26V68.73h2.75c6.24,0,9,2.48,9,7,0,4.11-1.83,7.67-10.48,7.67l12.74,18h6.56v-.76c-1.46,0-3.11-1.82-4.63-3.86" transform="translate(0 0)"/><path d="M91.31,96.35,80.55,66.73H74.41v.75c.79,0,1.73.23,1.73,1.57a6.42,6.42,0,0,1-.41,1.87c-.15.47-9.09,26.23-9.09,26.23-1,3-1.83,3.55-4,3.55v.76h9.11v-.76c-2.46,0-3.19-.94-3.19-1.75a10.53,10.53,0,0,1,.77-3.19L71.94,88H83.58l2.21,6.27c1.08,3,1.42,3.87,1.42,4.84s-.48,1.61-2.59,1.61v.76H95.07v-.76c-2.3,0-2.43-.75-3.76-4.35M72.62,86l5.13-14.8h.1L82.91,86Z" transform="translate(0 0)"/><path d="M141.66,66.19c-7.91,0-16.75,7.47-16.75,18,0,9.73,5.72,17.79,16,17.79,10.1,0,16.59-9.08,16.59-18.33,0-7.84-4.49-17.47-15.83-17.47m.85,33.09c-7.11,0-13.52-9.39-13.52-17,0-10.72,6.53-13.14,10.73-13.14,6.95,0,13.07,7,13.07,16.45,0,8.55-3.64,13.68-10.28,13.68" transform="translate(0 0)"/></svg>