<svg xmlns="http://www.w3.org/2000/svg" viewBox="0 0 28.8 29.7"><style type="text/css"> .st0{fill:#000000;} </style><path class="st0" d="M27.1 25.5l-5.8-5.8c1.6-2 2.5-4.5 2.5-7.2 0-3.1-1.2-6-3.4-8.1C16.1 0 8.5 0 4.2 4.4 2 6.5 0.8 9.4 0.8 12.5c0 3.1 1.2 6 3.4 8.1S9.2 24 12.3 24c2.6 0 5.2-0.9 7.2-2.5l5.8 5.8c0.2 0.2 0.6 0.4 0.9 0.4 0.3 0 0.6-0.1 0.9-0.4C27.6 26.8 27.6 26 27.1 25.5zM6 18.8c-1.7-1.7-2.6-4-2.6-6.4S4.3 7.8 6 6.1c1.7-1.7 4-2.6 6.4-2.6 2.4 0 4.7 0.9 6.4 2.6 1.7 1.7 2.6 4 2.6 6.4s-0.9 4.7-2.6 6.4C15.3 22.2 9.3 22.2 6 18.8z"/></svg>