<svg xmlns="http://www.w3.org/2000/svg" viewBox="0 0 278.66 240.28"><title>wechat</title><path d="M249.94,141c-25.87,1.35-48.36,9.19-66.62,26.91-18.45,17.9-26.87,39.83-24.57,67-10.11-1.25-19.32-2.63-28.58-3.41-3.2-.27-7,.11-9.7,1.64-9,5.07-17.61,10.8-27.83,17.19,1.87-8.48,3.09-15.91,5.24-23,1.58-5.25.85-8.17-4-11.59C62.83,193.8,49.74,161,59.54,127.22,68.6,96,90.85,77,121.09,67.14c41.28-13.48,87.66.27,112.76,33A77.23,77.23,0,0,1,249.94,141ZM130.89,130.49c.24-6.18-5.12-11.74-11.47-11.93a11.59,11.59,0,0,0-12.06,11.2,11.45,11.45,0,0,0,11.34,11.88,11.78,11.78,0,0,0,12.19-11.15ZM193,118.55c-6.38.12-11.77,5.55-11.66,11.76a11.64,11.64,0,0,0,12,11.38,11.57,11.57,0,1,0-.31-23.14Zm0,0" transform="translate(-56.34 -62)"/><path d="M308.06,302.28c-8.19-3.65-15.7-9.12-23.7-10s-16.35,3.77-24.68,4.62c-25.39,2.6-48.15-4.48-66.91-21.83-35.68-33-30.58-83.6,10.7-110.64,36.69-24,90.49-16,116.36,17.33,22.57,29.1,19.92,67.73-7.64,92.18-8,7.08-10.84,12.9-5.73,22.23.94,1.72,1.05,3.9,1.6,6.08ZM214.82,212a9.64,9.64,0,1,0,.07-19.28,9.64,9.64,0,1,0-.07,19.28Zm60.11-19.25a9.64,9.64,0,0,0-9.56,9.22,9.51,9.51,0,1,0,9.56-9.22Zm0,0" transform="translate(-56.34 -62)"/></svg>