<svg xmlns="http://www.w3.org/2000/svg" xmlns:xlink="http://www.w3.org/1999/xlink" viewBox="0 0 302.96 243.87"><defs><style>.a{fill:none;}.b{clip-path:url(#a);}</style><clipPath id="a" transform="translate(-50 -62.72)"><rect class="a" x="50" y="62.59" width="303" height="244.16"/></clipPath></defs><title>weibo</title><g class="b"><path d="M352.66,135.51c1.3,16.88-1.55,37.11-12.7,38.1-18.2,1.63-8.71-18.42-8.47-30.48.67-35-29.19-59.27-58.43-59.27-8.28,0-27.53,5.62-24.56-11.85,1.33-7.7,7.86-7.6,14.39-8.47,49.18-6.56,86.31,27.27,89.77,72Zm0,0" transform="translate(-50 -62.72)"/><path d="M272.22,176.16c21.14,11.57,46.55,17.33,42.33,51.66-1,8.23-6,19.22-11,26.24-35.74,50-143.53,71.06-210.85,33-22.58-12.76-45.94-31.42-42.33-68.6,3.1-32,24.62-56.78,45.73-77.89,20.14-20.15,41.38-35.92,70.28-43.18,31.35-7.88,40.62,18.26,32.18,44,18.16-1.22,56.65-21.49,73.67-1.69,7.5,8.72,4.63,24.35,0,36.41Zm-22.86,81.28c6.77-7.68,13.58-19.38,13.54-33-.09-42.08-53.1-57.63-94.83-54.19-22.82,1.87-38.18,6.69-54.19,16.09C100.8,194,85.5,206.48,81.7,225.26c-8.56,42.24,37.38,62.1,71.12,64.35,39,2.62,78-11.14,96.53-32.18Zm0,0" transform="translate(-50 -62.72)"/></g><path d="M311.16,135.51c1.78,12.89-1.91,24.06-9.31,24.56-12.34.82-7.72-8.45-8.47-19.47-.47-6.79-6.1-14.63-11-16.94-9.63-4.51-24.56,3.29-24.56-10.16,0-10,8.66-8.95,13.55-9.32,21.44-1.63,37.29,13.14,39.79,31.33Zm0,0" transform="translate(-50 -62.72)"/><path d="M212.1,220.19c18,54.52-76,79.88-93.14,33-11.5-31.34,16.11-56.26,44.88-59.27,24.56-2.57,42.86,9.95,48.27,26.25Zm-43.18,9.32c3.83,6.62,12.63,1.87,11.86-3.38-.92-6.08-11.93-5.18-11.86,3.38ZM153.67,258.3c15.8-3.76,17.93-33.53-5.93-27.95-20,4.68-16.16,33.2,5.93,27.95Zm0,0" transform="translate(-50 -62.72)"/></svg>