<svg xmlns="http://www.w3.org/2000/svg" viewBox="0 0 350.02 252.25"><title>youku</title><path d="M184.37,73a26.86,26.86,0,0,0-15.32,4.62c-10.15,7-15.79,28.63-22.61,44-7.51,16.93-14.09,34-21.41,46.41-19.78-22.45-33.28-72.19-57.11-90.42-7.69-5.87-24.54-5.71-32.12,0-20.53,15.45.07,42.77,8.32,57.11,18.12,31.43,38.21,65.08,53.54,94-10,26.28-60.3,100.56,7.14,96.36,16.32-10.55,23.24-32.5,32.11-52.36,18.15-40.64,33.57-75.75,52.35-117.77,7.8-17.47,26.6-43.28,22.61-63.06C209.65,80.87,197.05,73,184.37,73ZM347.56,89.12c-9.75.1-19.59,4.65-23.85,13.48a243.3,243.3,0,0,1-22.61,22.6A81.13,81.13,0,0,1,288,138.28c-5.65,5.87-10.23,12.78-17.85,16.67v-46.4c-.17-25.24-47.4-25.24-47.58,0V240.61c2.06,9.42,6.35,16.63,16.65,17.83h14.29c9.79-1.7,15.36-7.63,16.65-17.83V212.05c0-9.9-1.85-26.61,4.76-16.66,9.69,9.48,23.35,19.69,35.7,30.92,11.86,10.81,23.2,28.26,35.68,30.93,25.55,5.48,36.82-19,27.37-36.87-10-18.84-38.75-30.9-51.16-47.59,8.36-19.13,53.8-30.88,50-64.24C371,95.37,359.33,89,347.56,89.12Zm0,0" transform="translate(-26.98 -73)"/></svg>