<svg xmlns="http://www.w3.org/2000/svg" viewBox="0 0 30.3 31.5"><style type="text/css"> .st0{fill:#000000;} </style><path class="st0" d="M29.4 6.5c-0.1-3.3-2.8-6-6.1-6H12.6c-3.4 0-6.1 2.8-6.1 6.1v0.5c-3.2 0.2-5.7 2.8-5.7 6h0v0.1V19v0.1h0c0.1 3 2.3 5.5 5.1 5.9l0 5.5 8.6-5.4h3.1c3.4 0 6.1-2.7 6.1-6h0V19v-0.5c3.2-0.2 5.7-2.8 5.7-6h0v-0.1V6.6L29.4 6.5 29.4 6.5zM17.6 23.2h-3.7l-6 3.8 0-3.8h-1c-2.3 0-4.2-1.9-4.2-4.2v-5.8c0-2.3 1.9-4.2 4.2-4.2h10.7c2.3 0 4.2 1.9 4.2 4.2V19C21.7 21.3 19.9 23.2 17.6 23.2zM23.7 16.5v-3.2 -0.1h0c-0.1-3.3-2.8-6-6.1-6H8.4V6.6c0-2.3 1.9-4.2 4.2-4.2h10.7c2.3 0 4.2 1.9 4.2 4.2v5.8C27.5 14.5 25.8 16.3 23.7 16.5z"/></svg>